<?xml version="1.0" encoding="UTF-8"?><svg id="a" xmlns="http://www.w3.org/2000/svg" viewBox="0 0 545.1 519.24"><defs><style>.b{fill:#fff;}.c{fill:#0059ff;}.d{fill:#dadada;}.e{fill:#f44336;}.f{fill:#36b5ff;}</style></defs><g><path class="f" d="M415.88,144.12c-2.56-4.26-7.96-5.69-12.22-3.13l-190.19,109.74c-4.26,2.56-5.69,7.96-3.41,12.22v.28c2.56,4.26,7.96,5.69,12.22,3.13l190.19-109.74h.28c4.26-2.84,5.69-8.24,3.13-12.51h0Z"/><path class="f" d="M478.14,108.59c2.56,4.26,7.96,5.69,12.22,3.13l39.23-22.74c4.26-2.56,5.69-7.96,3.41-12.22v-.28c-2.56-4.26-7.96-5.69-12.22-3.13l-39.23,22.74h-.28c-4.55,2.84-5.97,8.24-3.13,12.51q-.28,0,0,0Z"/><path class="f" d="M438.62,131.33c2.56,4.26,7.96,5.69,12.22,3.13l1.42-.85c4.26-2.56,5.69-7.96,3.41-12.22v-.28c-2.56-4.26-7.96-5.69-12.22-3.13l-1.42,.85h-.28c-4.26,2.56-5.69,8.24-3.13,12.51h0Z"/><path class="f" d="M54.55,352.79c-2.56-4.26-7.96-5.69-12.22-3.13l-1.42,.85h-.28c-4.26,2.56-5.69,7.96-3.13,12.22v.28c2.56,4.26,7.96,5.69,12.22,3.13l1.42-.85h.28c4.26-2.84,5.69-8.24,3.13-12.51h0Z"/><path class="f" d="M77.01,340.28c2.56,4.26,7.96,5.69,12.22,3.13l95.52-55.15h.28c4.26-2.56,5.69-7.96,3.13-12.22v-.28c-2.56-4.26-7.96-5.69-12.22-3.13l-95.52,55.15h-.28c-4.26,2.56-5.69,7.96-3.13,12.51q0-.28,0,0Z"/><path class="f" d="M208.07,80.44c2.56,4.26,7.96,5.69,12.22,3.13L333.47,16.91h.28c4.26-2.56,5.69-7.96,3.13-12.22v-.28c-2.56-4.26-7.96-5.69-12.22-3.13l-113.18,66.66c-4.55,2.56-5.97,7.96-3.41,12.51,0-.28,0,0,0,0Z"/><path class="f" d="M34.93,179.95c.28,0,.28,.28,0,0,2.56,4.26,7.96,5.69,12.22,3.41l1.42-.85h.28c4.26-2.56,5.69-7.96,3.13-12.22v-.28c-2.56-4.26-7.96-5.69-12.22-3.13l-1.42,.85h-.28c-4.26,2.56-5.4,7.96-3.13,12.22Z"/><path class="f" d="M74.45,157.49c2.56,4.26,7.96,5.69,12.22,3.13l95.52-55.15h.28c4.26-2.56,5.69-7.96,3.13-12.22v-.28c-2.56-4.26-7.96-5.69-12.22-3.13l-95.52,55.15h-.28c-4.26,2.56-5.69,7.96-3.13,12.51,0-.28,0,0,0,0Z"/><path class="f" d="M321.44,92.53c-4.26,2.56-5.69,7.96-3.41,12.22v.28c2.56,4.26,7.96,5.69,12.22,3.13l89.89-48.19h.28c4.26-2.56,5.69-7.96,3.13-12.22v-.28c-2.56-4.26-7.96-5.69-12.22-3.13l-89.89,48.19Z"/><path class="f" d="M37.21,271.2c2.56,4.26,7.96,5.69,12.22,3.13l39.23-22.74c4.26-2.56,5.69-7.96,3.41-12.22v-.28c-2.56-4.26-7.96-5.69-12.22-3.13l-39.23,22.74h-.28c-4.26,2.84-5.69,8.24-3.13,12.51h0Z"/><path class="f" d="M126.47,229.7l1.42-.85c4.26-2.56,5.69-7.96,3.41-12.22v-.28c-2.56-4.26-7.96-5.69-12.22-3.13l-1.42,.85h-.28c-4.26,2.56-5.69,7.96-3.13,12.22v.28c2.56,4.26,8.24,5.69,12.22,3.13Z"/><path class="f" d="M450.28,31.55c2.56,4.26,7.96,5.69,12.22,3.13l1.42-.85h.28c4.26-2.56,5.69-7.96,3.13-12.22v-.28c-2.56-4.26-7.96-5.69-12.22-3.13l-1.42,.85c-4.26,2.56-5.97,7.96-3.41,12.51q0-.28,0,0Z"/><path class="f" d="M264.64,139.01c-2.56-4.26-7.96-5.69-12.22-3.13l-95.52,55.15c-4.26,2.56-5.69,7.96-3.41,12.22v.28c2.56,4.26,7.96,5.69,12.22,3.13l95.52-55.15h.28c4.26-2.56,5.69-7.96,3.13-12.51q0,.28,0,0Z"/><path class="f" d="M398.54,348.81c4.26-2.56,5.69-7.96,3.13-12.22v-.28c-2.56-4.26-7.96-5.69-12.22-3.13l-190.19,109.74h-.28c-4.26,2.56-5.69,7.96-3.13,12.22v.28c2.56,4.26,7.96,5.69,12.22,3.13l190.47-109.74c-.28,0,0,0,0,0Z"/><path class="f" d="M173.67,468.22c-2.56-4.26-7.96-5.69-12.22-3.13l-1.42,.85h-.28c-4.26,2.56-5.69,7.96-3.13,12.22v.28c2.56,4.26,7.96,5.69,12.22,3.13l1.42-.85h.28c4.26-2.84,5.69-8.24,3.13-12.51h0Z"/><path class="f" d="M134.15,490.67c-2.56-4.26-7.96-5.69-12.22-3.13l-1.42,.85h-.28c-4.26,2.56-5.69,7.96-3.13,12.22v.28c2.56,4.26,7.96,5.69,12.22,3.13l1.42-.85h.28c4.55-2.56,5.69-7.96,3.13-12.51,.28,.28,0,.28,0,0Z"/><path class="f" d="M523.06,256.14l-95.52,55.15h-.28c-4.26,2.56-5.69,7.96-3.13,12.22v.28c2.56,4.26,7.96,5.69,12.22,3.13l95.52-55.15c4.26-2.56,5.69-7.96,3.41-12.22v-.28c-2.56-4.26-7.96-5.69-12.22-3.13Z"/><path class="f" d="M362.72,450.87c-2.56-4.26-7.96-5.69-12.22-3.13l-94.38,54.58h-.28c-4.26,2.56-5.69,7.96-3.13,12.22v.28c2.56,4.26,7.96,5.69,12.22,3.13l94.38-54.58h.28c4.26-2.84,5.69-8.24,3.13-12.51h0Z"/><path class="f" d="M439.76,406.24c-2.56-4.26-7.96-5.69-12.22-3.13l-39.23,22.74h-.28c-4.26,2.56-5.69,7.96-3.13,12.22v.28c2.56,4.26,7.96,5.69,12.22,3.13l39.23-22.74h.28c4.55-2.56,5.69-7.96,3.13-12.51,.28,0,0,0,0,0Z"/><path class="f" d="M518.51,360.75c-2.56-4.26-7.96-5.69-12.22-3.13l-1.42,.85c-4.26,2.56-5.69,7.96-3.41,12.22v.28c2.56,4.26,7.96,5.69,12.22,3.13l1.42-.85h.28c4.26-2.56,5.69-7.96,3.13-12.51q0,.28,0,0Z"/><path class="f" d="M479.28,383.5c-2.56-4.26-7.96-5.69-12.22-3.13l-1.42,.85c-4.26,2.56-5.69,7.96-3.41,12.22v.28c2.56,4.26,7.96,5.69,12.22,3.13l1.42-.85h.28c4.26-2.56,5.69-7.96,3.13-12.51,0,.28,0,0,0,0Z"/><path class="f" d="M279.99,324.93c4.26-2.56,5.69-7.96,3.13-12.22v-.28c-2.56-4.26-7.96-5.69-12.22-3.13l-190.19,109.74h-.28c-4.26,2.56-5.69,7.96-3.13,12.22v.28c2.56,4.26,7.96,5.69,12.22,3.13l190.47-109.74c-.28,.28,0,0,0,0Z"/><path class="f" d="M533.29,168.29c-2.56-4.26-7.96-5.69-12.22-3.13l-39.23,22.74h-.28c-4.26,2.56-5.69,7.96-3.13,12.22v.28c2.56,4.26,7.96,5.69,12.22,3.13l39.23-22.74c4.26-2.56,5.97-8.24,3.41-12.51h0Z"/><path class="f" d="M310.13,286.84l-1.42,.85c-4.26,2.56-5.69,7.96-3.41,12.22v.28c2.56,4.26,7.96,5.69,12.22,3.13l1.42-.85h.28c4.26-2.56,5.69-7.96,3.13-12.22v-.28c-2.56-4.26-7.96-5.69-12.22-3.13Z"/><path class="f" d="M347.65,265.23c-4.26,2.56-5.69,7.96-3.13,12.22v.28c2.56,4.26,7.96,5.69,12.22,3.13l95.52-55.15c.28,0,.28-.28,.57-.28,3.98-2.56,5.4-7.96,2.84-11.94v-.28c-2.56-4.26-7.96-5.69-12.22-3.13l-95.81,55.15c.28-.28,.28,0,0,0Z"/></g><g><path class="c" d="M321.85,169.17h-95.09c-5.52,0-10-4.48-10-10v-59.87c0-31.73,25.81-57.54,57.54-57.54s57.54,25.81,57.54,57.54v59.87c0,5.52-4.48,10-10,10Zm-85.09-20h75.09v-49.87c0-20.7-16.84-37.54-37.54-37.54s-37.54,16.84-37.54,37.54v49.87Z"/><g><rect class="b" x="178.82" y="135.34" width="190.96" height="219.27" rx="17.1" ry="17.1"/><path class="c" d="M352.69,361.61H195.92c-13.29,0-24.1-10.81-24.1-24.1V152.44c0-13.29,10.81-24.1,24.1-24.1h156.76c13.29,0,24.1,10.81,24.1,24.1v185.07c0,13.29-10.81,24.1-24.1,24.1ZM195.92,142.34c-5.57,0-10.1,4.53-10.1,10.1v185.07c0,5.57,4.53,10.1,10.1,10.1h156.76c5.57,0,10.1-4.53,10.1-10.1V152.44c0-5.57-4.53-10.1-10.1-10.1H195.92Z"/></g><rect class="d" x="202.1" y="157.13" width="144.4" height="175.7" rx="7.11" ry="7.11"/><circle class="c" cx="274.3" cy="217.65" r="27.66"/></g><path class="b" d="M284.11,308.55h-.65c0-.12,0-.25,0-.37,0-27.7-22.46-50.16-50.16-50.16-13.84,0-26.37,5.61-35.44,14.67-10.24-26.92-36.27-46.06-66.79-46.06-39.46,0-71.45,31.99-71.45,71.45,0,3.56,.27,7.05,.77,10.47h-2.08c-28.35,0-51.34,22.98-51.34,51.34h0c0,28.35,22.98,51.34,51.34,51.34h225.78c28.35,0,51.34-22.98,51.34-51.34h0c0-28.35-22.98-51.34-51.34-51.34Z"/><path class="d" d="M58.34,333.55c-14.79,0-26.77,12.25-26.32,27.13s12.55,25.54,26.88,25.54h224.66c14.33,0,26.46-11.21,26.88-25.54,.44-14.88-11.54-27.13-26.32-27.13h-12.72c-7.23,0-13.07-5.89-13.02-13.12l.1-12.08c0-.15,0-.3,0-.46-.15-13.74-11.38-24.87-25.15-24.87-6.71,0-13.03,2.61-17.78,7.36l-13.09,13.08c-6.68,6.67-18.01,4.24-21.37-4.58l-6.29-16.55c-6.77-17.81-23.48-30.21-42.53-30.68-26.15-.65-47.62,20.43-47.62,46.43,0,2.25,.17,4.55,.51,6.84l2.01,13.72c1.15,7.86-4.94,14.91-12.88,14.91h-15.95Z"/><g><path class="c" d="M284.11,418.22h-84.36c-19.59,0-35.52-15.94-35.52-35.52v-62.1c0-3.87,3.13-7,7-7s7,3.13,7,7v62.1c0,11.87,9.66,21.52,21.52,21.52h84.36c24.45,0,44.33-19.89,44.33-44.33s-19.89-44.34-44.33-44.34h-.65c-1.87,0-3.66-.75-4.97-2.07-1.31-1.32-2.04-3.12-2.03-4.99,0-.13,0-.25,0-.38-.04-23.77-19.38-43.09-43.16-43.09-11.52,0-22.35,4.48-30.5,12.62-1.68,1.68-4.09,2.39-6.42,1.89-2.32-.5-4.23-2.14-5.07-4.36-9.45-24.85-33.66-41.55-60.25-41.55-35.54,0-64.45,28.91-64.45,64.45,0,3.12,.23,6.3,.7,9.45,.3,2.01-.3,4.05-1.63,5.59-1.33,1.54-3.26,2.42-5.3,2.42h-2.08c-24.45,0-44.33,19.89-44.33,44.34s19.89,44.33,44.33,44.33h58.89c3.87,0,7,3.13,7,7s-3.13,7-7,7H58.33c-32.17,0-58.33-26.17-58.33-58.33,0-30.28,23.18-55.24,52.73-58.07-.06-1.25-.09-2.5-.09-3.74,0-43.26,35.19-78.45,78.45-78.45,29.11,0,55.89,16.45,69.34,41.78,9.56-6.75,20.95-10.39,32.89-10.39,29.38,0,53.65,22.28,56.81,50.83,29.35,3.02,52.32,27.89,52.32,58.03,0,32.17-26.17,58.33-58.33,58.33Z"/><path class="c" d="M203.23,359.6c-1.79,0-3.58-.68-4.95-2.05l-27.05-27.05-27.05,27.05c-2.73,2.73-7.17,2.73-9.9,0-2.73-2.73-2.73-7.17,0-9.9l32-32c2.73-2.73,7.17-2.73,9.9,0l32,32c2.73,2.73,2.73,7.17,0,9.9-1.37,1.37-3.16,2.05-4.95,2.05Z"/></g><g><g><circle class="b" cx="95.39" cy="408.43" r="40.71"/><path class="e" d="M95.39,454.14c-25.21,0-45.71-20.51-45.71-45.71s20.51-45.71,45.71-45.71,45.71,20.51,45.71,45.71-20.51,45.71-45.71,45.71Zm0-81.43c-19.69,0-35.71,16.02-35.71,35.71s16.02,35.71,35.71,35.71,35.71-16.02,35.71-35.71-16.02-35.71-35.71-35.71Z"/></g><g><rect class="e" x="89.57" y="421.83" width="11.64" height="11.64" rx="5.82" ry="5.82"/><rect class="e" x="89.57" y="383.37" width="11.64" height="34.2" rx="5.82" ry="5.82"/></g></g><g><g><path class="b" d="M326.57,260.8h106.66c5.53,0,10.02,4.49,10.02,10.02v141.79c0,34.97-28.39,63.35-63.35,63.35h0c-34.97,0-63.35-28.39-63.35-63.35v-141.79c0-5.53,4.49-10.02,10.02-10.02Z" transform="translate(371.75 -160.73) rotate(45)"/><path class="c" d="M348.62,469.98c-18.02,0-36.03-6.86-49.75-20.57h0c-27.43-27.43-27.43-72.06,0-99.5l100.26-100.26c6.64-6.64,17.44-6.64,24.08,0l75.42,75.42c3.21,3.22,4.99,7.49,4.99,12.04s-1.77,8.82-4.99,12.04l-100.26,100.26c-13.72,13.71-31.73,20.57-49.75,20.57Zm62.55-211.31c-.78,0-1.55,.29-2.14,.88l-100.26,100.26c-10.64,10.64-16.51,24.79-16.51,39.85s5.86,29.2,16.5,39.85h0c21.97,21.97,57.72,21.97,79.7,0l100.26-100.26c1.18-1.18,1.18-3.1,0-4.28l-75.42-75.42c-.59-.59-1.36-.88-2.14-.88Z"/></g><path class="d" d="M347.8,286.47h64.2c3.06,0,5.54,2.48,5.54,5.54v120.66c0,20.77-16.86,37.63-37.63,37.63h0c-20.77,0-37.63-16.86-37.63-37.63v-120.66c0-3.06,2.48-5.54,5.54-5.54Z" transform="translate(371.75 -160.73) rotate(45)"/><path class="c" d="M351.91,422.57c-6.71,0-13.42-2.55-18.53-7.66-10.22-10.22-10.22-26.85,0-37.06,10.22-10.22,26.85-10.22,37.06,0,10.22,10.22,10.22,26.85,0,37.06-5.11,5.11-11.82,7.66-18.53,7.66Zm0-38.4c-3.13,0-6.25,1.19-8.63,3.57-4.76,4.76-4.76,12.5,0,17.26,4.76,4.76,12.5,4.76,17.26,0,4.76-4.76,4.76-12.5,0-17.26-2.38-2.38-5.51-3.57-8.63-3.57Z"/><g><rect class="b" x="444.63" y="226.22" width="77.43" height="77.43" transform="translate(328.91 -264.18) rotate(45)"/><path class="c" d="M483.35,326.69c-1.79,0-3.58-.68-4.95-2.05l-54.75-54.75c-2.73-2.73-2.73-7.17,0-9.9l54.75-54.75c2.73-2.73,7.17-2.73,9.9,0l54.75,54.75c2.73,2.73,2.73,7.17,0,9.9l-54.75,54.75c-1.37,1.37-3.16,2.05-4.95,2.05Zm-44.85-61.75l44.85,44.85,44.85-44.85-44.85-44.85-44.85,44.85Z"/></g><path class="c" d="M471.91,262.72c-1.28,0-2.56-.49-3.54-1.46-1.95-1.95-1.95-5.12,0-7.07l8.91-8.91c1.95-1.95,5.12-1.95,7.07,0,1.95,1.95,1.95,5.12,0,7.07l-8.91,8.91c-.98,.98-2.26,1.46-3.54,1.46Z"/><path class="c" d="M490.68,281.49c-1.28,0-2.56-.49-3.54-1.46-1.95-1.95-1.95-5.12,0-7.07l8.91-8.91c1.95-1.95,5.12-1.95,7.07,0,1.95,1.95,1.95,5.12,0,7.07l-8.91,8.91c-.98,.98-2.26,1.46-3.54,1.46Z"/></g><g><g><circle class="b" cx="394.31" cy="256.98" r="40.71"/><path class="e" d="M394.31,302.7c-25.21,0-45.71-20.51-45.71-45.71s20.51-45.71,45.71-45.71,45.71,20.51,45.71,45.71-20.51,45.71-45.71,45.71Zm0-81.43c-19.69,0-35.71,16.02-35.71,35.71s16.02,35.71,35.71,35.71,35.71-16.02,35.71-35.71-16.02-35.71-35.71-35.71Z"/></g><g><rect class="e" x="388.49" y="270.39" width="11.64" height="11.64" rx="5.82" ry="5.82"/><rect class="e" x="388.49" y="231.93" width="11.64" height="34.2" rx="5.82" ry="5.82"/></g></g></svg>