<svg xmlns="http://www.w3.org/2000/svg" xmlns:xlink="http://www.w3.org/1999/xlink" width="24" height="24" viewBox="0 0 24 24"><defs><style>.a{fill:none;}.b{clip-path:url(#a);}</style><clipPath id="a"><rect class="a" width="20" height="20" transform="translate(3372.894 1043.894)"/></clipPath></defs><rect class="a" width="24" height="24"/><g class="b" transform="translate(-3370.894 -1041.894)"><path d="M11.726,18.231H13.7V15.262h2.968V13.284H13.7V10.315H11.726v2.968H8.758v1.979h2.968Zm6.926,3.958H6.779A1.985,1.985,0,0,1,4.8,20.209V4.379a1.906,1.906,0,0,1,.582-1.4,1.9,1.9,0,0,1,1.4-.581h7.915l5.936,5.936V20.209a1.983,1.983,0,0,1-1.979,1.979ZM13.7,9.326V4.379H6.779V20.209H18.652V9.326ZM6.779,4.379V20.209h0V4.379Z" transform="translate(3370.179 1041.6)"/></g></svg>