<svg xmlns="http://www.w3.org/2000/svg" width="24" height="24" viewBox="0 0 24 24"><defs><style>.a{stroke:rgba(0,0,0,0);opacity:0;}.b{stroke:none;}.c{fill:none;}</style></defs><g class="a"><rect class="b" width="24" height="24"/><rect class="c" x="0.5" y="0.5" width="23" height="23"/></g><path d="M12,20a7,7,0,1,1,7-7,7,7,0,0,1-7,7M12,4a9,9,0,1,0,9,9,9,9,0,0,0-9-9m.5,4H11v6l4.75,2.85.75-1.23-4-2.37V8M7.88,3.39,6.6,1.86,2,5.71,3.29,7.24,7.88,3.39M22,5.72,17.4,1.86,16.11,3.39l4.6,3.86Z" transform="translate(0 0.14)"/></svg>