<svg xmlns="http://www.w3.org/2000/svg" width="32" height="32" viewBox="0 0 32 32"><defs><style>.a{fill:none;}.b{fill:#161616;}</style></defs><rect class="a" width="32" height="32"/><g transform="translate(9.2 9)"><path class="b" d="M9.3,15H6.9a.977.977,0,0,1-1-.8l-.3-1.3a1.9,1.9,0,0,1-.471-.256A1.889,1.889,0,0,0,4.9,12.5l-1.2.4a.37.37,0,0,1-.3.1.791.791,0,0,1-.8-.5l-1.2-2a.944.944,0,0,1,.2-1.3l.9-.7V7.7l-.9-.9a1.121,1.121,0,0,1-.3-1.3l1.2-2A1.049,1.049,0,0,1,3.4,3h.3l1.2.4.005,0A4.867,4.867,0,0,1,5.6,3.1l.2-1.3a.977.977,0,0,1,1-.8H9.2a.817.817,0,0,1,.9.8l.3,1.3a1.87,1.87,0,0,1,.467.254l.005,0A1.98,1.98,0,0,0,11.1,3.5l1.2-.4a.37.37,0,0,1,.3-.1,1.049,1.049,0,0,1,.9.5l1.2,2a1.066,1.066,0,0,1-.2,1.3l-1,.8v.8l1.1.8a1.084,1.084,0,0,1,.2,1.3l-1.1,2a1.048,1.048,0,0,1-.9.5.359.359,0,0,1-.149-.05.354.354,0,0,0-.15-.05l-1.2-.4a5.622,5.622,0,0,1-.7.4l-.3,1.3A.977.977,0,0,1,9.3,15ZM5,11.4H5c.143.086.277.171.4.25a6.111,6.111,0,0,0,1,.549L6.8,14H9.2l.3-1.8a6.349,6.349,0,0,0,1.4-.8l1.7.6,1.2-2L12.4,8.8a4.236,4.236,0,0,0,0-1.6L13.8,6,12.6,4,11,4.6c-.138-.082-.267-.165-.393-.245L10.6,4.348l-.007,0A5.957,5.957,0,0,0,9.6,3.8L9.2,2H6.8L6.5,3.8a3.953,3.953,0,0,0-1.4.8L3.4,4,2.2,6,3.6,7.2a4.311,4.311,0,0,0,0,1.6L2.2,10l1.2,2L5,11.4ZM8,11a3.023,3.023,0,1,1,3-3A2.993,2.993,0,0,1,8,11ZM8,6A1.931,1.931,0,0,0,6,7.9V8a1.931,1.931,0,0,0,1.9,2H8a1.932,1.932,0,0,0,2-1.9V8A1.935,1.935,0,0,0,8,6Z" transform="translate(-1.2 -1)"/></g></svg>