<svg xmlns="http://www.w3.org/2000/svg" width="32" height="32" viewBox="0 0 32 32"><defs><style>.a{fill:none;}.b{fill:#161616;}</style></defs><rect class="a" width="32" height="32"/><g transform="translate(9.052 9.053)"><path class="b" d="M13.247,13.947h0l-4.3-4.3a5.44,5.44,0,0,1-7,0,5.372,5.372,0,0,1-1.925-3.7,5.472,5.472,0,0,1,1.225-4A5.415,5.415,0,0,1,5.447,0a5.5,5.5,0,0,1,3.5,1.247,5.372,5.372,0,0,1,1.925,3.7,5.472,5.472,0,0,1-1.225,4l4.3,4.3-.7.7Zm-7.8-13A4.482,4.482,0,1,0,8.635,2.26,4.475,4.475,0,0,0,5.448.948Z" transform="translate(0 0)"/></g></svg>