<svg xmlns="http://www.w3.org/2000/svg" xmlns:xlink="http://www.w3.org/1999/xlink" width="24" height="24" viewBox="0 0 24 24"><defs><style>.a{fill:#fff;stroke:#707070;}.b{clip-path:url(#a);}</style><clipPath id="a"><rect class="a" width="24" height="24" transform="translate(1756 1603)"/></clipPath></defs><g class="b" transform="translate(-1756 -1603)"><path d="M7.091,21.818A5.848,5.848,0,0,1,2.851,20.1a5.645,5.645,0,0,1-1.76-4.2,6.046,6.046,0,0,1,1.282-3.791A5.67,5.67,0,0,1,5.727,9.982a7.591,7.591,0,0,1,7.364-5.618A7.367,7.367,0,0,1,18.5,6.586,7.368,7.368,0,0,1,20.727,12a4.92,4.92,0,0,1,4.364,4.909,4.887,4.887,0,0,1-4.909,4.909h-6A2.188,2.188,0,0,1,12,19.636V14.018l-1.745,1.691L8.727,14.182l4.364-4.364,4.364,4.364-1.527,1.527-1.745-1.691v5.618h6a2.738,2.738,0,0,0,1.936-4.664,2.633,2.633,0,0,0-1.936-.791H18.545V12a5.445,5.445,0,0,0-5.455-5.455A5.447,5.447,0,0,0,7.636,12H7.091a3.679,3.679,0,0,0-2.7,1.118,3.819,3.819,0,0,0,0,5.4,3.679,3.679,0,0,0,2.7,1.118H9.818v2.182Zm6-7.636Z" transform="translate(1754.909 1601.909)"/></g></svg>