<svg xmlns="http://www.w3.org/2000/svg" xmlns:xlink="http://www.w3.org/1999/xlink" width="24" height="24" viewBox="0 0 24 24"><defs><style>.a{fill:#fff;stroke:#707070;}.b{clip-path:url(#a);}</style><clipPath id="a"><rect class="a" width="24" height="24" transform="translate(1723 1603)"/></clipPath></defs><g class="b" transform="translate(-1723 -1603)"><path d="M7.091,21.818A5.848,5.848,0,0,1,2.851,20.1a5.645,5.645,0,0,1-1.76-4.2,6.046,6.046,0,0,1,1.282-3.791A5.67,5.67,0,0,1,5.727,9.982,7.667,7.667,0,0,1,8.045,6.245,5.664,5.664,0,0,1,12,4.473a2.186,2.186,0,0,1,2.182,2.182v6.6l1.745-1.691,1.527,1.527-4.364,4.364L8.727,13.091l1.527-1.527L12,13.255v-6.6a4.849,4.849,0,0,0-3.218,2A5.729,5.729,0,0,0,7.636,12H7.091a3.679,3.679,0,0,0-2.7,1.118,3.819,3.819,0,0,0,0,5.4,3.679,3.679,0,0,0,2.7,1.118H20.182a2.738,2.738,0,0,0,1.936-4.664,2.633,2.633,0,0,0-1.936-.791H18.545V12a5.136,5.136,0,0,0-.6-2.441,6.126,6.126,0,0,0-1.582-1.922V5.1A7.608,7.608,0,0,1,20.727,12a4.92,4.92,0,0,1,4.364,4.909,4.887,4.887,0,0,1-4.909,4.909Zm6-9.764Z" transform="translate(1721.909 1601.854)"/></g></svg>