<svg xmlns="http://www.w3.org/2000/svg" xmlns:xlink="http://www.w3.org/1999/xlink" width="24" height="24" viewBox="0 0 24 24"><defs><style>.a{fill:#c9c9c9;}.b{clip-path:url(#a);}</style><clipPath id="a"><rect class="a" width="24" height="24" transform="translate(1008 688)"/></clipPath></defs><g class="b" transform="translate(-1008 -688)"><path d="M20.865,23.312a.463.463,0,0,0,.476-.451l.232-7.886a.464.464,0,0,0-.928-.025l-.232,7.886A.463.463,0,0,0,20.865,23.312Zm-2.307,0a.463.463,0,0,0,.464-.464V14.962a.464.464,0,1,0-.928,0v7.886A.463.463,0,0,0,18.558,23.312Zm5.8-11.6H21.415l-.22-.77a1.711,1.711,0,0,0-1.59-1.2H17.514a1.716,1.716,0,0,0-1.59,1.2l-.22.77H12.763a.58.58,0,0,0,0,1.16h.124l.422,11.39a1.548,1.548,0,0,0,1.541,1.483h7.422a1.548,1.548,0,0,0,1.541-1.483l.422-11.39h.124a.582.582,0,0,0,.58-.58A.588.588,0,0,0,24.356,11.715Zm-7.319-.456a.555.555,0,0,1,.476-.356h2.092a.567.567,0,0,1,.476.356l.128.456h-3.3ZM22.65,24.22a.392.392,0,0,1-.381.369H14.846a.389.389,0,0,1-.381-.369l-.422-11.345h9.029Zm-6.4-.907a.463.463,0,0,0,.451-.476L16.47,14.95a.464.464,0,1,0-.928.025l.232,7.886A.463.463,0,0,0,16.251,23.312Z" transform="translate(1001.817 682.252)"/></g></svg>