<svg xmlns="http://www.w3.org/2000/svg" xmlns:xlink="http://www.w3.org/1999/xlink" width="24" height="24" viewBox="0 0 24 24"><defs><style>.a{fill:#c9c9c9;}.b{clip-path:url(#a);}</style><clipPath id="a"><rect class="a" width="24" height="24" transform="translate(952 684)"/></clipPath></defs><g class="b" transform="translate(-952 -684)"><path d="M11.656,3.47a8.1,8.1,0,0,1,5.893,2.385,7.848,7.848,0,0,1,2.431,5.824v.229H18.6v-.3a6.4,6.4,0,0,0-2.041-4.8,6.83,6.83,0,0,0-4.907-1.961,6.236,6.236,0,0,0-2.924.711,7.973,7.973,0,0,0-2.373,1.88H8.767V8.813H3.974V4.043H5.35V6.474a8.726,8.726,0,0,1,2.832-2.2A7.8,7.8,0,0,1,11.656,3.47Zm-.6,3.6h1.376V11.4l1.857,1.811-.734,1.215-2.5-2.454ZM3.47,11.7H4.846a6.731,6.731,0,0,0,1.972,4.884A6.5,6.5,0,0,0,11.656,18.6h.275l.78,1.307a3.8,3.8,0,0,1-.516.057q-.264.011-.539.011a7.84,7.84,0,0,1-5.8-2.419A8.038,8.038,0,0,1,3.47,11.7Zm14.1,10.8-.229-1.513a3.856,3.856,0,0,1-.78-.31,2.894,2.894,0,0,1-.688-.516l-1.261.275-.573-.963,1.078-1.009a2.423,2.423,0,0,1,0-1.147l-1.078-1.009.573-.963,1.261.275a2.894,2.894,0,0,1,.688-.516,3.856,3.856,0,0,1,.78-.31l.229-1.513H18.81l.229,1.513a3.856,3.856,0,0,1,.78.31,2.894,2.894,0,0,1,.688.516l1.261-.275.573.963L21.264,17.32a2.423,2.423,0,0,1,0,1.147l1.078,1.009-.573.963-1.261-.275a2.894,2.894,0,0,1-.688.516,3.856,3.856,0,0,1-.78.31L18.81,22.5Zm.619-2.775a1.733,1.733,0,1,0-1.33-.5A1.8,1.8,0,0,0,18.191,19.727Z" transform="translate(951.094 683.014)"/></g></svg>