<svg xmlns="http://www.w3.org/2000/svg" xmlns:xlink="http://www.w3.org/1999/xlink" width="24" height="24" viewBox="0 0 24 24"><defs><style>.a{fill:#c9c9c9;}.b{clip-path:url(#a);}.c{fill:#161616;}</style><clipPath id="a"><rect class="a" width="24" height="24" transform="translate(392 392)"/></clipPath></defs><g class="b" transform="translate(-392 -392)"><path class="c" d="M16,15H0V13.846H16V15ZM4.8,12.692H1.143V9L9.714.346a1.1,1.1,0,0,1,1.6,0l2.057,2.077a1.127,1.127,0,0,1,0,1.616L4.8,12.692Zm3.2-9H8L2.285,9.461v2.077H4.343L10.057,5.77,8,3.693Zm2.514-2.539h0L8.8,2.885l2.057,2.077,1.714-1.731L10.514,1.154Z" transform="translate(396 397)"/></g></svg>