<svg xmlns="http://www.w3.org/2000/svg" xmlns:xlink="http://www.w3.org/1999/xlink" width="24" height="24" viewBox="0 0 24 24"><defs><style>.a{fill:#c9c9c9;}.b{clip-path:url(#a);}</style><clipPath id="a"><rect class="a" width="24" height="24" transform="translate(912 684)"/></clipPath></defs><g class="b" transform="translate(-912 -684)"><path d="M11.852,16.014l5.826-5.826L16.6,9.141l-4.676,4.676L9.348,11.236,8.224,12.36Zm1.124,6.8A10.034,10.034,0,0,1,7.1,18.658a12.118,12.118,0,0,1-2.3-7.141V5.436L12.976,2.37l8.176,3.066v6.081a12.118,12.118,0,0,1-2.3,7.141A10.034,10.034,0,0,1,12.976,22.81Zm0-9.914Zm0,8.329a9.218,9.218,0,0,0,4.791-3.667,10.425,10.425,0,0,0,1.852-6.043V6.509l-6.643-2.5-6.643,2.5v5.008A10.425,10.425,0,0,0,8.185,17.56,9.218,9.218,0,0,0,12.976,21.226Z" transform="translate(911.024 683.41)"/></g></svg>