<svg xmlns="http://www.w3.org/2000/svg" width="16" height="16" viewBox="0 0 16 16"><defs><style>.a{fill:none;}.b{fill:#92929d;}</style></defs><path class="a" d="M0,0H16V16H0Z"/><path class="b" d="M3.889,12.8H.778a.783.783,0,0,1-.752-.6.81.81,0,0,1,.369-.9A2.412,2.412,0,0,0,1.556,9.548V7.2c0-.012,0-.024,0-.037A6.408,6.408,0,0,1,4.721,1.885a2.32,2.32,0,0,1,4.558,0,6.409,6.409,0,0,1,3.165,5.277c0,.013,0,.025,0,.037V9.548A2.412,2.412,0,0,0,13.605,11.3a.81.81,0,0,1,.369.9.782.782,0,0,1-.752.6H10.111A3.16,3.16,0,0,1,7,16,3.16,3.16,0,0,1,3.889,12.8Zm1.556,0a1.557,1.557,0,1,0,3.112,0ZM6.222,2.387a.778.778,0,0,1-.007.122.812.812,0,0,1-.112.318.786.786,0,0,1-.236.245.675.675,0,0,1-.1.059A4.8,4.8,0,0,0,3.112,7.219V9.6a.788.788,0,0,1-.006.1,4.067,4.067,0,0,1-.486,1.5H11.38a4.075,4.075,0,0,1-.486-1.5.9.9,0,0,1-.005-.1V7.219a4.8,4.8,0,0,0-2.665-4.1A.8.8,0,0,1,7.777,2.4a.778.778,0,1,0-1.555-.013Z" transform="translate(1 0)"/></svg>