<svg xmlns="http://www.w3.org/2000/svg" width="16" height="16" viewBox="0 0 16 16"><defs><style>.a{fill:none;}.b{fill:#92929d;}</style></defs><path class="a" d="M0,0H16V16H0Z"/><path class="b" d="M2.4,12A2.331,2.331,0,0,1,0,9.75V2.25A2.332,2.332,0,0,1,2.4,0H13.6A2.332,2.332,0,0,1,16,2.25v7.5A2.332,2.332,0,0,1,13.6,12ZM1.6,9.75a.777.777,0,0,0,.8.75H13.6a.777.777,0,0,0,.8-.75v-6.1L8.444,7.374a.848.848,0,0,1-.888,0L1.6,3.652ZM8,5.849l6.31-3.944a.808.808,0,0,0-.71-.4H2.4a.808.808,0,0,0-.71.4Z" transform="translate(0 2)"/></svg>