<svg xmlns="http://www.w3.org/2000/svg" width="24" height="24" viewBox="0 0 24 24"><defs><style>.a{opacity:0;}.b{fill:#0059ff;}.c{fill:rgba(0,0,0,0);}</style></defs><g class="a"><rect class="b" width="24" height="24"/><path class="c" d="M1,1V23H23V1H1M0,0H24V24H0Z"/></g><path class="b" d="M5.83,10a3,3,0,1,0,0,2H8v2h2V12h1V10H5.83M3,12a1,1,0,1,1,1-1,1,1,0,0,1-1,1M16,4a4,4,0,1,0,4,4,4,4,0,0,0-4-4m0,6.1A2.1,2.1,0,1,1,18.1,8,2.1,2.1,0,0,1,16,10.1M16,13c-2.67,0-8,1.33-8,4v3H24V17c0-2.67-5.33-4-8-4m6.1,5.1H9.9V17c0-.64,3.1-2.1,6.1-2.1,2.97,0,6.1,1.46,6.1,2.1Z"/></svg>