<svg xmlns="http://www.w3.org/2000/svg" width="16" height="16" viewBox="0 0 16 16"><defs><style>.a{fill:none;}.b{fill:#92929d;}</style></defs><g transform="translate(0)"><path class="a" d="M0,0H16V16H0Z"/><path class="b" d="M.754,14.406a.8.8,0,0,1-.282-.069A.8.8,0,0,1,0,13.562a.784.784,0,0,1,.045-.22L.96,10.6A6.739,6.739,0,0,1,3.055,1.545,8.608,8.608,0,0,1,8.366.007a8.466,8.466,0,0,1,5.14,1.965,6.687,6.687,0,0,1,.92,9.512,8.114,8.114,0,0,1-4.7,2.738,8.807,8.807,0,0,1-5.264-.576L.98,14.387a.8.8,0,0,1-.18.021ZM4.906,12.09a6.989,6.989,0,0,0,8.287-1.623,5.061,5.061,0,0,0-.724-7.278,7.087,7.087,0,0,0-8.489-.34A5.1,5.1,0,0,0,2.5,10.043a.8.8,0,0,1,.1.7L2,12.536l2.391-.509a.763.763,0,0,1,.166-.018A.8.8,0,0,1,4.906,12.09Zm5.487-4.869V7.213a.8.8,0,0,1,1.6,0v.008a.8.8,0,0,1-1.6,0Zm-3.2,0V7.213a.8.8,0,0,1,1.6,0v.008a.8.8,0,0,1-1.6,0Zm-3.2,0V7.213a.8.8,0,0,1,1.6,0v.008a.8.8,0,0,1-1.6,0Z" transform="translate(0 0.796)"/></g></svg>