<svg xmlns="http://www.w3.org/2000/svg" width="16" height="16" viewBox="0 0 16 16"><defs><style>.a{fill:none;}.b{fill:#FFFFFF;}</style></defs><g transform="translate(0 0)"><rect class="a" width="16" height="16" transform="translate(0 0)"/><path class="b" d="M15.059,16a.943.943,0,0,1-.576-.2l-.089-.079L11.34,12.672a7,7,0,0,1-4.281,1.446,7.059,7.059,0,1,1,7.059-7.059,6.994,6.994,0,0,1-1.446,4.281l3.052,3.054A.941.941,0,0,1,15.059,16Zm-8-14.118A5.176,5.176,0,1,0,10.4,11.016a.94.94,0,0,1,.62-.621A5.176,5.176,0,0,0,7.059,1.882Z" transform="translate(0 0)"/></g></svg>
