<svg xmlns="http://www.w3.org/2000/svg" width="16" height="15.999" viewBox="0 0 16 15.999"><defs><style>.a{fill:none;}.b{fill:#92929d;}</style></defs><g transform="translate(0 0)"><path class="a" d="M0,0H12.774V12.774H0Z"/><path class="b" d="M14.4,20H8a2.4,2.4,0,0,1-2.4-2.4V12.8H4.8a.8.8,0,0,1-.566-1.366l7.2-7.2a.8.8,0,0,1,1.131,0l7.2,7.2A.8.8,0,0,1,19.2,12.8h-.8v4.8A2.4,2.4,0,0,1,16,20ZM16,18.4a.8.8,0,0,0,.8-.8V11.975a.055.055,0,0,0,0-.013v-.007s0-.009,0-.013v-.005c0-.006,0-.012,0-.017a.04.04,0,0,0,0-.008s0-.007,0-.011a.047.047,0,0,1,0-.008s0-.007,0-.01a.023.023,0,0,0,0-.008.1.1,0,0,0,0-.011l0-.013a.052.052,0,0,1,0-.009s0-.007,0-.01a.032.032,0,0,0,0-.007.085.085,0,0,0,0-.01.017.017,0,0,0,0-.007q0-.018.01-.036a.019.019,0,0,1,0-.005l0-.011a.026.026,0,0,1,0-.006l0-.011v0a.212.212,0,0,1,.008-.023v0a.09.09,0,0,0,0-.01l0-.006,0-.01,0-.006c0-.005,0-.011.007-.016l0-.007,0-.007a.019.019,0,0,0,0-.009.014.014,0,0,0,0-.007l.006-.01,0-.006.019-.031h0a.8.8,0,0,1,.4-.334L12,5.932,6.681,11.25a.807.807,0,0,1,.36.271h0l.01.015h0l.011.015v0l.008.012,0,.006.006.009,0,.006.006.009.005.01.005.009,0,.009,0,.006,0,.01,0,0,.017.036v0a.109.109,0,0,1,0,.011l0,0a.125.125,0,0,0,0,.012h0a.307.307,0,0,1,.014.04.012.012,0,0,1,0,0l0,.012a.012.012,0,0,1,0,0c0,.012.007.025.01.038v.006l0,.01a.038.038,0,0,1,0,.007.033.033,0,0,1,0,.01.029.029,0,0,1,0,.009l0,.014a.079.079,0,0,0,0,.011s0,.005,0,.008a.074.074,0,0,0,0,.01.042.042,0,0,1,0,.008l0,.012a.024.024,0,0,0,0,.006v.023s0,.009,0,.014a.014.014,0,0,0,0,.006V17.6a.8.8,0,0,0,.8.8h.8v-4A2.4,2.4,0,0,1,11.2,12h1.6a2.4,2.4,0,0,1,2.4,2.4v4Zm-2.4,0v-4a.8.8,0,0,0-.8-.8H11.2a.8.8,0,0,0-.8.8v4Z" transform="translate(-4 -4)"/></g></svg>