<svg xmlns="http://www.w3.org/2000/svg" width="16" height="16" viewBox="0 0 16 16"><defs><style>.a{fill:none;}.b{fill:#92929d;}</style></defs><path class="a" d="M0,0H16V16H0Z"/><path class="b" d="M2.25,16A2.332,2.332,0,0,1,0,13.6V2.4A2.332,2.332,0,0,1,2.25,0H7.537A.73.73,0,0,1,8.045.25l3.736,3.984a.81.81,0,0,1,.069.085l0,0,.005.008.006.009,0,0A.833.833,0,0,1,12,4.76h0c0,.007,0,.013,0,.02s0,.013,0,.02v8.8A2.332,2.332,0,0,1,9.75,16ZM1.5,2.4V13.6a.776.776,0,0,0,.75.8h7.5a.777.777,0,0,0,.75-.8v-8H8.25A1.554,1.554,0,0,1,6.75,4V1.6H2.25A.776.776,0,0,0,1.5,2.4ZM8.25,4H9.439L8.25,2.732Zm-1.5,8.8a.8.8,0,0,1,0-1.6h1.5a.8.8,0,0,1,0,1.6Zm-3-3.2a.8.8,0,0,1,0-1.6h4.5a.8.8,0,0,1,0,1.6Zm0-4.8A.776.776,0,0,1,3,4a.776.776,0,0,1,.75-.8H4.5a.776.776,0,0,1,.75.8.776.776,0,0,1-.75.8Z" transform="translate(2)"/></svg>