<svg xmlns="http://www.w3.org/2000/svg" width="16" height="16" viewBox="0 0 16 16"><defs><style>.a{fill:none;}.b{fill:#92929d;}</style></defs><path class="a" d="M0,0H16V16H0Z"/><path class="b" d="M0,8a8,8,0,1,1,8,8A8.009,8.009,0,0,1,0,8ZM1.6,8A6.4,6.4,0,1,0,8,1.6,6.406,6.406,0,0,0,1.6,8Zm5.6,4.008V12a.8.8,0,0,1,1.6,0v.008a.8.8,0,0,1-1.6,0Zm0-2.763a2.01,2.01,0,0,1,1.321-2A1.28,1.28,0,1,0,7.037,5.284a.8.8,0,0,1-1.274-.968A2.88,2.88,0,1,1,9.085,8.747l-.021.008a.4.4,0,0,0-.266.4A.8.8,0,0,1,8.045,10H8A.8.8,0,0,1,7.2,9.245Z"/></svg>