<svg xmlns="http://www.w3.org/2000/svg" width="16" height="16" viewBox="0 0 16 16"><defs><style>.a{fill:none;}.b{fill:#92929d;}</style></defs><path class="a" d="M0,0H16V16H0Z"/><path class="b" d="M14.4,15.2V13.6a2.4,2.4,0,0,0-1.8-2.308A.8.8,0,1,1,13,9.746a4,4,0,0,1,3,3.85v1.6a.8.8,0,1,1-1.6,0Zm-4.8,0V13.6a2.4,2.4,0,0,0-2.4-2.4H4a2.4,2.4,0,0,0-2.4,2.4v1.6a.8.8,0,1,1-1.6,0V13.6a4,4,0,0,1,4-4H7.2a4,4,0,0,1,4,4v1.6a.8.8,0,1,1-1.6,0ZM1.6,4a4,4,0,1,1,4,4A4,4,0,0,1,1.6,4ZM3.2,4A2.4,2.4,0,1,0,5.6,1.6,2.4,2.4,0,0,0,3.2,4Zm7.224,3.3A.8.8,0,0,1,11,6.329a2.4,2.4,0,0,0,0-4.65A.8.8,0,1,1,11.4.13a4,4,0,0,1,0,7.749.789.789,0,0,1-.2.025A.8.8,0,0,1,10.424,7.3Z"/></svg>