<svg xmlns="http://www.w3.org/2000/svg" width="16" height="16" viewBox="0 0 16 16"><defs><style>.a{fill:none;}.b{fill:#92929d;}</style></defs><path class="a" d="M0,0H16V16H0Z"/><path class="b" d="M2.25,16A2.332,2.332,0,0,1,0,13.6V2.4A2.332,2.332,0,0,1,2.25,0H7.537A.73.73,0,0,1,8.045.25l3.736,3.984a.81.81,0,0,1,.069.085l0,0,.005.008.006.009,0,0A.833.833,0,0,1,12,4.76h0c0,.007,0,.013,0,.02s0,.013,0,.02v8.8A2.332,2.332,0,0,1,9.75,16ZM1.5,2.4V13.6a.776.776,0,0,0,.75.8h7.5a.777.777,0,0,0,.75-.8v-8H8.25A1.554,1.554,0,0,1,6.75,4V1.6H2.25A.776.776,0,0,0,1.5,2.4ZM8.25,4H9.439L8.25,2.732ZM5.981,12.8H5.909l-.013,0H5.89l-.012,0H5.872l-.012,0H5.854l-.01,0-.009,0-.008,0-.01,0-.007,0-.013,0h0a.734.734,0,0,1-.31-.189l-.017-.018-2.247-2.4a.838.838,0,0,1,0-1.131.717.717,0,0,1,1.061,0l.97,1.035V7.2a.751.751,0,1,1,1.5,0v2.869l.97-1.035a.717.717,0,0,1,1.061,0,.838.838,0,0,1,0,1.131l-2.25,2.4a.74.74,0,0,1-.272.185h0l-.013,0-.006,0-.01,0-.01,0-.007,0-.013,0h0l-.014,0h0l-.015,0h0l-.016,0h0l-.017,0h0l-.016,0h0l-.016,0h0l-.015,0H5.981Z" transform="translate(2 0)"/></svg>