<svg xmlns="http://www.w3.org/2000/svg" width="16" height="16" viewBox="0 0 16 16"><defs><style>.a{fill:#92929d;}</style></defs><g transform="translate(-2 -2)"><path class="a" d="M1.6,16A1.622,1.622,0,0,1,0,14.4V1.6A1.623,1.623,0,0,1,1.6,0H8.8a1.622,1.622,0,0,1,1.6,1.6V4.667a.8.8,0,1,1-1.6,0V1.6H1.6V14.4H8.8V11.334a.812.812,0,0,1,.8-.8.789.789,0,0,1,.8.8V14.4A1.621,1.621,0,0,1,8.8,16Zm10.633-5.033a.825.825,0,0,1,0-1.133L13.267,8.8H5.6a.8.8,0,1,1,0-1.6h7.666L12.234,6.167a.8.8,0,0,1,1.133-1.134l2.4,2.4c.033.033.066.1.1.133,0,.033.033.033.033.067s.034.067.034.1c.033.033.033.033.033.067A.123.123,0,0,1,16,7.9v.267a.116.116,0,0,0-.033.067c-.033.033-.033.033-.033.067a.116.116,0,0,0-.034.067c0,.033-.033.033-.033.067a.468.468,0,0,1-.1.133l-2.4,2.4a.8.8,0,0,1-1.133,0Z" transform="translate(2 2)"/></g></svg>