<svg xmlns="http://www.w3.org/2000/svg" width="16" height="16" viewBox="0 0 16 16"><defs><style>.a{fill:none;}.b{fill:#92929d;}</style></defs><path class="a" d="M0,0H16V16H0Z"/><path class="b" d="M5.883,14.335a.58.58,0,0,0-.865-.359,2.16,2.16,0,0,1-3.045-.808,2.139,2.139,0,0,1,.05-2.187.58.58,0,0,0-.358-.865,2.179,2.179,0,0,1,0-4.234.58.58,0,0,0,.359-.865,2.14,2.14,0,0,1-.051-2.187,2.161,2.161,0,0,1,3.045-.809.564.564,0,0,0,.3.086.58.58,0,0,0,.565-.444,2.179,2.179,0,0,1,4.234,0,.58.58,0,0,0,.865.359,2.16,2.16,0,0,1,3.045.807,2.14,2.14,0,0,1-.049,2.187.579.579,0,0,0,.358.865,2.178,2.178,0,0,1,0,4.234.58.58,0,0,0-.358.865,2.14,2.14,0,0,1,.05,2.187,2.161,2.161,0,0,1-3.045.809.58.58,0,0,0-.865.358,2.179,2.179,0,0,1-4.234,0Zm.271-1.877a2.185,2.185,0,0,1,1.284,1.5.579.579,0,0,0,1.125,0,2.178,2.178,0,0,1,3.25-1.346.591.591,0,0,0,.306.094.606.606,0,0,0,.512-.32.535.535,0,0,0-.021-.57,2.179,2.179,0,0,1,1.347-3.252.579.579,0,0,0,0-1.125,2.178,2.178,0,0,1-1.346-3.251.538.538,0,0,0,.021-.572A.607.607,0,0,0,12.12,3.3a.585.585,0,0,0-.305.094,2.183,2.183,0,0,1-1.135.318,2.167,2.167,0,0,1-.834-.166,2.185,2.185,0,0,1-1.284-1.5.579.579,0,0,0-1.125,0A2.175,2.175,0,0,1,4.186,3.388.592.592,0,0,0,3.881,3.3a.606.606,0,0,0-.512.32.535.535,0,0,0,.021.57A2.179,2.179,0,0,1,2.042,7.437a.579.579,0,0,0,0,1.125,2.178,2.178,0,0,1,1.347,3.251.537.537,0,0,0-.021.572.607.607,0,0,0,.512.319.586.586,0,0,0,.305-.094,2.182,2.182,0,0,1,1.968-.153ZM4.8,8A3.2,3.2,0,1,1,8,11.2,3.2,3.2,0,0,1,4.8,8ZM6.4,8A1.6,1.6,0,1,0,8,6.4,1.6,1.6,0,0,0,6.4,8Z"/></svg>