<svg xmlns="http://www.w3.org/2000/svg" xmlns:xlink="http://www.w3.org/1999/xlink" width="16" height="16" viewBox="0 0 16 16"><defs><style>.a{fill:#92929d;}.b{clip-path:url(#a);}</style><clipPath id="a"><path class="a" d="M0,0H16V16H0Z" transform="translate(960 480)"/></clipPath></defs><g class="b" transform="translate(-960 -480)"><g transform="translate(960.071 480)"><path class="a" d="M10.622,21.645H1a.813.813,0,0,0-.8.8.791.791,0,0,0,.8.8h9.62a.8.8,0,1,0,0-1.6Z" transform="translate(-0.2 -7.248)"/><path class="a" d="M16.96,12.276,12.451,7.766l2-2a1.84,1.84,0,0,0,.534-1.336,1.986,1.986,0,0,0-.534-1.336L11.95.585A1.84,1.84,0,0,0,10.614.05,1.986,1.986,0,0,0,9.278.585L4.134,5.762a1.855,1.855,0,0,0,0,2.639l2.505,2.505a1.84,1.84,0,0,0,1.336.534,1.986,1.986,0,0,0,1.336-.534l2-2,4.509,4.509a.806.806,0,0,0,1.136,0A.828.828,0,0,0,16.96,12.276ZM8.175,9.8a.334.334,0,0,1-.4,0L5.269,7.3a.334.334,0,0,1,0-.4L10.413,1.72a.245.245,0,0,1,.2-.067.282.282,0,0,1,.2.067l2.505,2.505a.245.245,0,0,1,.067.2.245.245,0,0,1-.067.2h0L10.747,7.2h0Z" transform="translate(-1.328 -0.05)"/></g></g></svg>