<svg xmlns="http://www.w3.org/2000/svg" xmlns:xlink="http://www.w3.org/1999/xlink" width="24" height="24" viewBox="0 0 24 24"><defs><style>.a{fill:#161616;stroke:rgba(0,0,0,0);opacity:0;}.b{clip-path:url(#a);}</style><clipPath id="a"><rect class="a" width="24" height="24" transform="translate(3401 1044)"/></clipPath></defs><g class="b" transform="translate(-3401 -1044)"><path d="M8.787,22.762V20.633H4.529a2.049,2.049,0,0,1-1.5-.625A2.051,2.051,0,0,1,2.4,18.5V5.729a2.051,2.051,0,0,1,.626-1.5,2.049,2.049,0,0,1,1.5-.625h8.516V5.729H4.529V18.5H21.562V15.31h2.129V18.5a2.134,2.134,0,0,1-2.129,2.129H17.3v2.129Zm9.581-7.452L13.045,9.987l1.49-1.49L17.3,11.238V3.6h2.129v7.638L22.2,8.5l1.49,1.49Z" transform="translate(3399.955 1042.819)"/></g></svg>