<svg xmlns="http://www.w3.org/2000/svg" width="24" height="24" viewBox="0 0 24 24"><defs><style>.a{opacity:0;}.b{fill:#161616;}.c{fill:rgba(0,0,0,0);}</style></defs><g class="a"><rect class="b" width="24" height="24"/><path class="c" d="M1,1V23H23V1H1M0,0H24V24H0Z"/></g><path class="b" d="M11,6a5.022,5.022,0,0,1,3.54,1.46L12,10h6V4L15.95,6.05A6.994,6.994,0,0,0,4.08,10H6.1A5,5,0,0,1,11,6m5.64,9.14A6.889,6.889,0,0,0,17.92,12H15.9a5.008,5.008,0,0,1-8.44,2.54L10,12H4v6l2.05-2.05A6.976,6.976,0,0,0,11,18a6.873,6.873,0,0,0,4.14-1.36L20,21.5,21.5,20Z" transform="translate(-1 -1)"/></svg>