<svg xmlns="http://www.w3.org/2000/svg" width="24" height="24" viewBox="0 0 24 24"><defs><style>.a{opacity:0;}.b{fill:rgba(0,0,0,0);}</style></defs><g transform="translate(952 -181)"><g class="a"><rect width="24" height="24" transform="translate(-952 181)"/><path class="b" d="M1,1V23H23V1H1M0,0H24V24H0Z" transform="translate(-952 181)"/></g><path d="M14,2H6A2,2,0,0,0,4,4V20a2,2,0,0,0,2,2H18a2,2,0,0,0,2-2V8L14,2M6,4h7l5,5v8.58l-1.84-1.84A5.006,5.006,0,0,0,12,8,5.042,5.042,0,0,0,8.47,9.46a4.932,4.932,0,0,0,0,7.04A4.87,4.87,0,0,0,12,17.97a4.981,4.981,0,0,0,2.75-.83L17.6,20H6V4m8.11,11.1A2.993,2.993,0,0,1,12,16a3,3,0,1,1,2.11-5.12A2.989,2.989,0,0,1,15,13,2.937,2.937,0,0,1,14.11,15.1Z" transform="translate(-952 181)"/></g></svg>