<svg xmlns="http://www.w3.org/2000/svg" xmlns:xlink="http://www.w3.org/1999/xlink" width="24" height="24" viewBox="0 0 24 24"><defs><style>.a{fill:#c9c9c9;}.b{clip-path:url(#a);}</style><clipPath id="a"><rect class="a" width="24" height="24" transform="translate(1016 792)"/></clipPath></defs><g class="b" transform="translate(-1016 -792)"><path d="M4.8,21.1V18.9H7V11.2A6.444,6.444,0,0,1,8.375,7.143,6.346,6.346,0,0,1,11.95,4.82V4.05a1.65,1.65,0,1,1,3.3,0v.77a6.346,6.346,0,0,1,3.575,2.323A6.444,6.444,0,0,1,20.2,11.2v7.7h2.2v2.2Zm8.8-8.25Zm0,11.55a2.206,2.206,0,0,1-2.2-2.2h4.4a2.2,2.2,0,0,1-2.2,2.2ZM9.2,18.9H18V11.2a4.413,4.413,0,0,0-4.4-4.4,4.413,4.413,0,0,0-4.4,4.4Z" transform="translate(1014.4 790.6)"/></g></svg>