<svg xmlns="http://www.w3.org/2000/svg" xmlns:xlink="http://www.w3.org/1999/xlink" width="24" height="24" viewBox="0 0 24 24"><defs><style>.a{fill:#fff;stroke:#707070;}.b{clip-path:url(#a);}</style><clipPath id="a"><rect class="a" width="24" height="24" transform="translate(1720 1612)"/></clipPath></defs><g class="b" transform="translate(-1720 -1612)"><path d="M10.8,12H21.6V9.6H10.8Zm0,4.8H21.6V14.4H10.8ZM8.4,12a1.179,1.179,0,1,0-.856-.346A1.162,1.162,0,0,0,8.4,12Zm0,4.8a1.179,1.179,0,1,0-.856-.346A1.162,1.162,0,0,0,8.4,16.8Zm1.2,8.4V22.8H4.8a2.31,2.31,0,0,1-1.694-.7A2.312,2.312,0,0,1,2.4,20.4V6a2.312,2.312,0,0,1,.706-1.7A2.31,2.31,0,0,1,4.8,3.6H24A2.4,2.4,0,0,1,26.4,6V20.4A2.4,2.4,0,0,1,24,22.8H19.2v2.4ZM4.8,20.4H24V6H4.8V20.4Zm0,0h0V6h0V20.4Z" transform="translate(1717.6 1609.6)"/></g></svg>