<svg xmlns="http://www.w3.org/2000/svg" xmlns:xlink="http://www.w3.org/1999/xlink" width="24" height="24" viewBox="0 0 24 24"><defs><style>.a{fill:#c9c9c9;}.b{clip-path:url(#a);}</style><clipPath id="a"><rect class="a" width="24" height="24" transform="translate(984 792)"/></clipPath></defs><g class="b" transform="translate(-984 -792)"><path d="M10.318,24.279l-.438-3.5a4.134,4.134,0,0,1-.67-.328q-.315-.192-.616-.41L5.338,21.405l-3.01-5.2,2.818-2.134a2.616,2.616,0,0,1-.027-.37v-.739a2.609,2.609,0,0,1,.027-.369L2.328,10.46l3.01-5.2L8.595,6.629a7.459,7.459,0,0,1,.629-.41,5.511,5.511,0,0,1,.657-.328l.438-3.5h6.02l.438,3.5a4.175,4.175,0,0,1,.671.328q.314.192.615.41l3.256-1.368,3.01,5.2L21.51,12.595a2.609,2.609,0,0,1,.027.369V13.7a1.345,1.345,0,0,1-.055.37L24.3,16.206l-3.01,5.2-3.229-1.368a7.46,7.46,0,0,1-.629.41,5.511,5.511,0,0,1-.657.328l-.438,3.5Zm3.065-7.114a3.83,3.83,0,0,0,3.831-3.831A3.83,3.83,0,0,0,13.383,9.5a3.806,3.806,0,0,0-3.831,3.831,3.806,3.806,0,0,0,3.831,3.831Zm0-2.189a1.635,1.635,0,1,1,1.163-.479A1.581,1.581,0,0,1,13.383,14.975Zm-.055-1.642ZM12.234,22.09H14.4l.383-2.9a6.133,6.133,0,0,0,1.574-.644,6.531,6.531,0,0,0,1.327-1.026l2.709,1.122,1.067-1.861L19.1,15a3.862,3.862,0,0,0,.192-.808,6.815,6.815,0,0,0,0-1.724,3.863,3.863,0,0,0-.192-.807l2.353-1.779L20.388,8.025,17.679,9.174a6,6,0,0,0-2.9-1.7l-.356-2.9H12.261l-.383,2.9a6.138,6.138,0,0,0-1.573.642A6.549,6.549,0,0,0,8.978,9.147L6.269,8.025,5.2,9.886l2.353,1.751a4.454,4.454,0,0,0-.192.821,6.633,6.633,0,0,0-.055.876,6.414,6.414,0,0,0,.055.848A4.454,4.454,0,0,0,7.555,15L5.2,16.781l1.067,1.861,2.709-1.149a6.035,6.035,0,0,0,2.9,1.7Z" transform="translate(982.672 790.667)"/></g></svg>