<svg xmlns="http://www.w3.org/2000/svg" width="24" height="24" viewBox="0 0 24 24"><defs><style>.a,.b{fill:#161616;}.a{stroke:rgba(0,0,0,0);opacity:0;}.c{stroke:none;}.d{fill:none;}</style></defs><g class="a"><rect class="c" width="24" height="24"/><rect class="d" x="0.5" y="0.5" width="23" height="23"/></g><path class="b" d="M8,13a3,3,0,1,1-3,3,3,3,0,0,1,3-3m0,2a1,1,0,1,0,1,1,1,1,0,0,0-1-1M9.77,4.33l.73.75,3.79-3.79a1.014,1.014,0,0,1,1.42,0l7.07,7.07v.01A.985.985,0,0,1,23,9a1.021,1.021,0,0,1-.34.76h0L18.93,13.5l.74.73-6.72,6.72a7,7,0,0,1-9.9-9.9L9.77,4.33m1.77,15.21,5.3-5.31L9.77,7.16l-5.31,5.3a5.006,5.006,0,0,0,7.08,7.08M15.07,4.69,16.5,6.1,15.07,7.5,13.66,6.1l1.41-1.41M17.9,7.5l1.41,1.43L17.9,10.34,16.5,8.93,17.9,7.5M20.59,9,15,3.41,11.93,6.5l5.57,5.58Z"/></svg>