<?xml version="1.0" encoding="UTF-8"?><svg id="a" xmlns="http://www.w3.org/2000/svg" viewBox="0 0 283.46 283.46"><defs><style>.b{fill:#fff;}.c{fill:#0058ff;}</style></defs><rect class="c" y="0" width="283.46" height="283.46"/><path class="b" d="M191.75,89.46v-.6c0-12.24-9.92-22.15-22.15-22.15h-58.46c-3.29,0-6.44,1.31-8.77,3.63l-32.04,32.04c-2.33,2.33-3.63,5.48-3.63,8.77v74.49c0,3.38,2.74,6.12,6.12,6.12h16.64c1.25,0,2.26,1.01,2.26,2.26v.6c0,12.24,9.92,22.15,22.15,22.15h58.46c3.29,0,6.44-1.31,8.77-3.63l32.04-32.04c2.33-2.33,3.63-5.48,3.63-8.77V97.83c0-3.38-2.74-6.12-6.12-6.12h-16.64c-1.25,0-2.26-1.01-2.26-2.26Zm-100.04,100.04V98.1c0-3.53,2.86-6.39,6.39-6.39h91.4c1.25,0,2.26,1.01,2.26,2.26v91.4c0,3.53-2.86,6.39-6.39,6.39H93.97c-1.25,0-2.26-1.01-2.26-2.26Z"/></svg>