<svg xmlns="http://www.w3.org/2000/svg" width="125.144" height="32" viewBox="0 0 125.144 32"><defs><style>.a{fill:#0059ff;}</style></defs><g transform="translate(-856 -176)"><g transform="translate(828 160)"><g transform="translate(76 24)"><path class="a" d="M70.371,24.314V11.586a.242.242,0,0,1,.242-.241h8.419a.681.681,0,0,1,.681.679V24.311a.34.34,0,0,0,.341.339h1.984a.34.34,0,0,0,.341-.339v-10.9a1.331,1.331,0,0,0-.386-.934l-3.42-3.409a1.323,1.323,0,0,0-.934-.385H71.024a.651.651,0,0,0-.653.651V11.1a.242.242,0,0,1-.242.241h-.063A2.358,2.358,0,0,0,67.7,13.7V24.311a.34.34,0,0,0,.341.339h1.984a.34.34,0,0,0,.341-.339Z" transform="translate(-49.1 -8.682)"/><path class="a" d="M89.142,10.946V9.053A.344.344,0,0,0,88.8,8.71h-1.98a.344.344,0,0,0-.344.343v1.974a.344.344,0,0,0,.344.343h1.541a.148.148,0,0,1,.105.252l-1.6,1.592a1.333,1.333,0,0,0-.393.945V24.293a.359.359,0,0,0,.337.378h2a.359.359,0,0,0,.337-.378V10.946h0Z" transform="translate(-49.239 -8.682)"/><path class="a" d="M60.943,9.028V21.756A.242.242,0,0,1,60.7,22H52.282a.681.681,0,0,1-.681-.679V9.028a.34.34,0,0,0-.341-.339H49.276a.34.34,0,0,0-.341.339v10.9a1.331,1.331,0,0,0,.386.934l3.42,3.409a1.323,1.323,0,0,0,.934.385H60.29a.651.651,0,0,0,.653-.651V22.235a.242.242,0,0,1,.242-.241h.063a2.358,2.358,0,0,0,2.363-2.355V9.028a.34.34,0,0,0-.341-.339H61.287a.34.34,0,0,0-.341.339Z" transform="translate(-48.936 -8.682)"/><path class="a" d="M106.181,22.022H96.087a.242.242,0,0,1-.242-.241V12.059a.681.681,0,0,1,.681-.679h9.651a.34.34,0,0,0,.341-.339V9.063a.34.34,0,0,0-.341-.339H97.916a1.34,1.34,0,0,0-.937.385l-3.42,3.409a1.314,1.314,0,0,0-.386.931v7.923a.651.651,0,0,0,.653.651H95.6a.242.242,0,0,1,.242.241v.063a2.358,2.358,0,0,0,2.363,2.355h7.97a.34.34,0,0,0,.341-.339V22.365a.34.34,0,0,0-.341-.339Z" transform="translate(-49.318 -8.682)"/><path class="a" d="M123.952,11.121v-.063A2.358,2.358,0,0,0,121.589,8.7H115.35a1.34,1.34,0,0,0-.937.385l-3.42,3.409a1.316,1.316,0,0,0-.386.934v7.923a.651.651,0,0,0,.653.651h1.777a.242.242,0,0,1,.242.241v.063a2.358,2.358,0,0,0,2.363,2.355h6.239a1.34,1.34,0,0,0,.937-.385l3.42-3.409a1.317,1.317,0,0,0,.386-.934V12.013a.651.651,0,0,0-.653-.651h-1.776a.242.242,0,0,1-.242-.241ZM113.279,21.76V12.038a.681.681,0,0,1,.681-.679h9.753a.242.242,0,0,1,.242.241v9.722a.681.681,0,0,1-.681.679h-9.753A.242.242,0,0,1,113.279,21.76Z" transform="translate(-49.479 -8.682)"/></g></g><path class="a" d="M22.268,32H10.288a5.168,5.168,0,0,1-5.163-5.126H1.877A1.88,1.88,0,0,1,0,25V9.732A3.146,3.146,0,0,1,.927,7.495L7.495.927A3.146,3.146,0,0,1,9.732,0h11.98a5.168,5.168,0,0,1,5.163,5.126h3.249A1.88,1.88,0,0,1,32,7V22.268a3.146,3.146,0,0,1-.927,2.238L24.509,31.07A3.186,3.186,0,0,1,22.271,32Zm-15.9-5.126a3.919,3.919,0,0,0,3.916,3.875h11.98a1.927,1.927,0,0,0,1.355-.563l6.564-6.564a1.907,1.907,0,0,0,.563-1.355V7a.631.631,0,0,0-.63-.63H26.871V24.94a1.936,1.936,0,0,1-1.934,1.934H6.372Zm0-1.25H24.94a.685.685,0,0,0,.684-.684V6.372H7.06a.685.685,0,0,0-.684.684V25.624ZM9.732,1.25a1.893,1.893,0,0,0-1.355.563L1.81,8.377a1.907,1.907,0,0,0-.563,1.355V25a.631.631,0,0,0,.63.63H5.126V7.06A1.937,1.937,0,0,1,7.06,5.126H25.628A3.919,3.919,0,0,0,21.712,1.25Z" transform="translate(856 176)"/></g></svg>