<svg xmlns="http://www.w3.org/2000/svg" width="32" height="32" viewBox="0 0 32 32"><defs><style>.a{fill:#0059ff;}</style></defs><path class="a" d="M22.268,32H10.288a5.168,5.168,0,0,1-5.163-5.126H1.877A1.88,1.88,0,0,1,0,25V9.732A3.146,3.146,0,0,1,.927,7.495L7.495.927A3.146,3.146,0,0,1,9.732,0h11.98a5.168,5.168,0,0,1,5.163,5.126h3.249A1.88,1.88,0,0,1,32,7V22.268a3.146,3.146,0,0,1-.927,2.238L24.509,31.07A3.186,3.186,0,0,1,22.271,32Zm-15.9-5.126a3.919,3.919,0,0,0,3.916,3.875h11.98a1.927,1.927,0,0,0,1.355-.563l6.564-6.564a1.907,1.907,0,0,0,.563-1.355V7a.631.631,0,0,0-.63-.63H26.871V24.94a1.936,1.936,0,0,1-1.934,1.934H6.372Zm0-1.25H24.94a.685.685,0,0,0,.684-.684V6.372H7.06a.685.685,0,0,0-.684.684V25.624ZM9.732,1.25a1.893,1.893,0,0,0-1.355.563L1.81,8.377a1.907,1.907,0,0,0-.563,1.355V25a.631.631,0,0,0,.63.63H5.126V7.06A1.937,1.937,0,0,1,7.06,5.126H25.628A3.919,3.919,0,0,0,21.712,1.25Z"/></svg>