<svg xmlns="http://www.w3.org/2000/svg" width="201.761" height="192.182" viewBox="0 0 201.761 192.182"><defs><style>.a{fill:#36b5ff;}.b{fill:#0059ff;}.c{fill:#fff;}.d{fill:#dadada;}.e{fill:#f44336;}</style></defs><g transform="translate(0 -0.003)"><g transform="translate(12.505 0.003)"><path class="a" d="M174.727,67.246a3.281,3.281,0,0,0-4.523-1.159l-70.4,40.619a3.408,3.408,0,0,0-1.262,4.523v.1a3.281,3.281,0,0,0,4.523,1.159l70.4-40.619h.1a3.429,3.429,0,0,0,1.159-4.63h0Z" transform="translate(-33.3 -13.905)"/><path class="a" d="M224.408,47.365a3.281,3.281,0,0,0,4.523,1.159l14.521-8.417a3.408,3.408,0,0,0,1.262-4.523v-.1a3.281,3.281,0,0,0-4.523-1.159L225.67,42.738h-.1a3.25,3.25,0,0,0-1.159,4.63h0Z" transform="translate(-59.936 -7.174)"/><path class="a" d="M205.867,60.223a3.281,3.281,0,0,0,4.523,1.159l.526-.315a3.408,3.408,0,0,0,1.262-4.523v-.1a3.281,3.281,0,0,0-4.523-1.159l-.526.315h-.1a3.406,3.406,0,0,0-1.159,4.63h0Z" transform="translate(-56.023 -11.615)"/><path class="a" d="M23.8,165.246a3.281,3.281,0,0,0-4.523-1.159l-.526.315h-.1a3.281,3.281,0,0,0-1.159,4.523v.1a3.281,3.281,0,0,0,4.523,1.159l.526-.315h.1a3.429,3.429,0,0,0,1.159-4.63h0Z" transform="translate(-16.11 -34.668)"/><path class="a" d="M36.04,152.951a3.281,3.281,0,0,0,4.523,1.159L75.919,133.7h.1a3.281,3.281,0,0,0,1.159-4.523v-.1a3.281,3.281,0,0,0-4.523-1.159L37.3,148.325h-.1a3.382,3.382,0,0,0-1.159,4.63h0Z" transform="translate(-20.041 -27.003)"/><path class="a" d="M97.592,29.775a3.281,3.281,0,0,0,4.523,1.159L144.008,6.26h.1a3.281,3.281,0,0,0,1.159-4.523v-.1A3.281,3.281,0,0,0,140.747.474L98.854,25.148a3.322,3.322,0,0,0-1.262,4.63h0Z" transform="translate(-33.083 -0.003)"/><path class="a" d="M16.291,83.085c.1,0,.1.1,0,0a3.408,3.408,0,0,0,4.523,1.262l.526-.315h.1A3.281,3.281,0,0,0,22.6,79.509v-.1a3.281,3.281,0,0,0-4.523-1.159l-.526.315h-.1A3.378,3.378,0,0,0,16.291,83.085Z" transform="translate(-15.867 -16.481)"/><path class="a" d="M34.838,67.106a3.281,3.281,0,0,0,4.523,1.159L74.717,47.851h.1a3.281,3.281,0,0,0,1.159-4.523v-.1a3.281,3.281,0,0,0-4.523-1.159L36.1,62.479H36a3.382,3.382,0,0,0-1.159,4.63h0Z" transform="translate(-19.787 -8.815)"/><path class="a" d="M150.515,38.534a3.408,3.408,0,0,0-1.262,4.523v.1a3.281,3.281,0,0,0,4.523,1.159l33.272-17.837h.1a3.281,3.281,0,0,0,1.159-4.523v-.1a3.281,3.281,0,0,0-4.523-1.159Z" transform="translate(-44.043 -4.288)"/><path class="a" d="M17.349,123.733a3.281,3.281,0,0,0,4.523,1.159l14.521-8.417a3.408,3.408,0,0,0,1.262-4.523v-.1a3.281,3.281,0,0,0-4.523-1.159l-14.521,8.417h-.1a3.429,3.429,0,0,0-1.159,4.63h0Z" transform="translate(-16.081 -23.354)"/><path class="a" d="M58.053,106.11l.526-.315a3.408,3.408,0,0,0,1.262-4.523v-.1a3.281,3.281,0,0,0-4.523-1.159l-.526.315h-.1a3.281,3.281,0,0,0-1.159,4.523v.1a3.3,3.3,0,0,0,4.523,1.159Z" transform="translate(-23.747 -21.092)"/><path class="a" d="M211.35,13.362a3.281,3.281,0,0,0,4.523,1.159l.526-.315h.1a3.281,3.281,0,0,0,1.159-4.523v-.1a3.281,3.281,0,0,0-4.523-1.159l-.526.315a3.413,3.413,0,0,0-1.262,4.63h0Z" transform="translate(-57.19 -1.687)"/><path class="a" d="M113.119,64.847a3.281,3.281,0,0,0-4.523-1.159L73.24,84.1a3.408,3.408,0,0,0-1.262,4.523v.1A3.281,3.281,0,0,0,76.5,89.887l35.356-20.413h.1a3.382,3.382,0,0,0,1.159-4.63h0Z" transform="translate(-27.671 -13.396)"/><path class="a" d="M166.876,162.133a3.281,3.281,0,0,0,1.159-4.523v-.1a3.281,3.281,0,0,0-4.523-1.159l-70.4,40.619h-.1a3.281,3.281,0,0,0-1.159,4.523v.1a3.281,3.281,0,0,0,4.523,1.159l70.5-40.619Z" transform="translate(-31.866 -33.028)"/><path class="a" d="M79.739,219.457a3.281,3.281,0,0,0-4.523-1.159l-.526.315h-.1a3.281,3.281,0,0,0-1.159,4.523v.1a3.281,3.281,0,0,0,4.523,1.159l.526-.315h.1a3.429,3.429,0,0,0,1.159-4.63h0Z" transform="translate(-27.963 -46.154)"/><path class="a" d="M61.179,230a3.281,3.281,0,0,0-4.523-1.159l-.526.315h-.1a3.281,3.281,0,0,0-1.159,4.523v.1a3.281,3.281,0,0,0,4.523,1.159l.526-.315h.1A3.292,3.292,0,0,0,61.179,230c.1.1,0,.1,0,0Z" transform="translate(-24.03 -48.387)"/><path class="a" d="M235.68,120.167,200.324,140.58h-.1a3.281,3.281,0,0,0-1.159,4.523v.1a3.281,3.281,0,0,0,4.523,1.159l35.356-20.413a3.408,3.408,0,0,0,1.262-4.523v-.1A3.281,3.281,0,0,0,235.68,120.167Z" transform="translate(-54.581 -25.362)"/><path class="a" d="M159.275,211.309a3.281,3.281,0,0,0-4.523-1.159l-34.934,20.2h-.1a3.281,3.281,0,0,0-1.159,4.523v.1a3.281,3.281,0,0,0,4.523,1.159l34.934-20.2h.1a3.429,3.429,0,0,0,1.159-4.63h0Z" transform="translate(-37.524 -44.427)"/><path class="a" d="M200.944,190.349a3.281,3.281,0,0,0-4.523-1.159L181.9,197.607h-.1a3.281,3.281,0,0,0-1.159,4.523v.1a3.281,3.281,0,0,0,4.523,1.159l14.521-8.417h.1a3.292,3.292,0,0,0,1.159-4.63h0Z" transform="translate(-50.677 -39.986)"/><path class="a" d="M241.71,168.985a3.281,3.281,0,0,0-4.523-1.159l-.526.315a3.408,3.408,0,0,0-1.262,4.523v.1a3.281,3.281,0,0,0,4.523,1.159l.526-.315h.1a3.382,3.382,0,0,0,1.159-4.63h0Z" transform="translate(-62.295 -35.46)"/><path class="a" d="M223.286,179.669a3.281,3.281,0,0,0-4.523-1.159l-.526.315a3.408,3.408,0,0,0-1.262,4.523v.1a3.281,3.281,0,0,0,4.523,1.159l.526-.315h.1a3.382,3.382,0,0,0,1.159-4.63h0Z" transform="translate(-58.391 -37.724)"/><path class="a" d="M111.2,150.918a3.281,3.281,0,0,0,1.159-4.523v-.1a3.281,3.281,0,0,0-4.523-1.159l-70.4,40.619h-.1a3.281,3.281,0,0,0-1.159,4.523v.1a3.281,3.281,0,0,0,4.523,1.159l70.5-40.619Z" transform="translate(-20.07 -30.652)"/><path class="a" d="M244.869,78.6a3.281,3.281,0,0,0-4.523-1.159l-14.521,8.417h-.1a3.281,3.281,0,0,0-1.159,4.523v.1a3.281,3.281,0,0,0,4.523,1.159l14.521-8.417a3.439,3.439,0,0,0,1.262-4.63h0Z" transform="translate(-59.984 -16.31)"/><path class="a" d="M145.062,134.585l-.526.315a3.408,3.408,0,0,0-1.262,4.523v.1a3.281,3.281,0,0,0,4.523,1.159l.526-.315h.1a3.281,3.281,0,0,0,1.159-4.523v-.1A3.281,3.281,0,0,0,145.062,134.585Z" transform="translate(-42.776 -28.417)"/><path class="a" d="M162.833,118.949a3.281,3.281,0,0,0-1.159,4.523v.1a3.281,3.281,0,0,0,4.523,1.159l35.356-20.413c.1,0,.1-.1.211-.1a3.242,3.242,0,0,0,1.051-4.419v-.1a3.281,3.281,0,0,0-4.523-1.159l-35.463,20.413c.1-.1.1,0,0,0Z" transform="translate(-46.659 -20.779)"/></g><g transform="translate(63.597 15.458)"><path class="b" d="M140.7,66.772H105.5a3.7,3.7,0,0,1-3.7-3.7V40.91a21.3,21.3,0,0,1,42.6,0V63.07a3.7,3.7,0,0,1-3.7,3.7Zm-31.5-7.4H137V40.91a13.895,13.895,0,0,0-27.79,0V59.369Z" transform="translate(-85.165 -19.612)"/><g transform="translate(0 32.047)"><rect class="c" width="70.682" height="81.16" rx="8.031" transform="translate(2.591 2.591)"/><path class="b" d="M147.641,146.616H89.614a8.93,8.93,0,0,1-8.92-8.92v-68.5a8.93,8.93,0,0,1,8.92-8.92h58.023a8.93,8.93,0,0,1,8.92,8.92v68.5a8.93,8.93,0,0,1-8.92,8.92ZM89.614,65.456a3.742,3.742,0,0,0-3.738,3.738v68.5a3.742,3.742,0,0,0,3.738,3.738h58.023a3.742,3.742,0,0,0,3.738-3.738v-68.5a3.742,3.742,0,0,0-3.738-3.738Z" transform="translate(-80.694 -60.274)"/></g><rect class="d" width="53.448" height="65.033" rx="3.339" transform="translate(11.208 42.703)"/><circle class="b" cx="10.238" cy="10.238" r="10.238" transform="translate(27.694 54.866)"/></g><g transform="translate(0 81.287)"><path class="c" d="M105.853,136.756h-.241v-.137a18.564,18.564,0,0,0-31.684-13.136,26.447,26.447,0,0,0-51.168,9.4,26.753,26.753,0,0,0,.285,3.875h-.77a19,19,0,0,0-19,19h0a19,19,0,0,0,19,19h83.57a19,19,0,0,0,19-19h0a19,19,0,0,0-19-19Z" transform="translate(-0.694 -103.836)"/><path class="d" d="M24.779,148.5a9.749,9.749,0,1,0,.207,19.5h83.155a9.88,9.88,0,0,0,9.949-9.453,9.759,9.759,0,0,0-9.742-10.042H103.64a4.82,4.82,0,0,1-4.819-4.856l.037-4.471V139a9.31,9.31,0,0,0-15.89-6.481l-4.845,4.841a4.819,4.819,0,0,1-7.91-1.7l-2.328-6.126a17.444,17.444,0,0,0-15.742-11.356A17.183,17.183,0,0,0,34.706,137.9l.744,5.078a4.82,4.82,0,0,1-4.767,5.519h-5.9Z" transform="translate(-3.185 -106.324)"/><path class="b" d="M105.16,176.651H73.935A13.163,13.163,0,0,1,60.788,163.5V140.518a2.591,2.591,0,0,1,5.182,0V163.5a7.975,7.975,0,0,0,7.965,7.965H105.16a16.41,16.41,0,0,0,0-32.82h-.241a2.591,2.591,0,0,1-2.591-2.613V135.9a15.976,15.976,0,0,0-27.264-11.278,2.591,2.591,0,0,1-4.253-.914,23.855,23.855,0,0,0-45.9,11.974,2.589,2.589,0,0,1-2.565,2.965h-.77a16.41,16.41,0,0,0,0,32.82h21.8a2.591,2.591,0,0,1,0,5.182H21.59a21.592,21.592,0,0,1-2.073-43.084c-.022-.463-.033-.925-.033-1.384a29.035,29.035,0,0,1,54.7-13.573,21.166,21.166,0,0,1,33.2,14.968,21.592,21.592,0,0,1-2.225,43.069Z" transform="translate(0 -103.138)"/><path class="b" d="M88.381,164.306a2.581,2.581,0,0,1-1.832-.759L76.536,153.535,66.524,163.547a2.591,2.591,0,0,1-3.664-3.664L74.7,148.038a2.594,2.594,0,0,1,3.664,0l11.844,11.844a2.591,2.591,0,0,1-1.832,4.423Z" transform="translate(-13.157 -112.49)"/></g><g transform="translate(18.388 134.257)"><circle class="c" cx="15.068" cy="15.068" r="15.068" transform="translate(1.851 1.851)"/><path class="e" d="M40.251,204.186A16.919,16.919,0,1,1,57.17,187.267a16.938,16.938,0,0,1-16.919,16.919Zm0-30.14a13.218,13.218,0,1,0,13.218,13.218,13.233,13.233,0,0,0-13.218-13.218Z" transform="translate(-23.332 -170.348)"/><g transform="translate(14.765 7.643)"><rect class="e" width="4.308" height="4.308" rx="2.154" transform="translate(0 14.236)"/><rect class="e" width="4.308" height="12.659" rx="2.154"/></g></g><g transform="translate(95.877 75.21)"><g transform="translate(0 15.352)"><path class="c" d="M3.709,0H43.188A3.711,3.711,0,0,1,46.9,3.709V56.191A23.459,23.459,0,0,1,23.448,79.639h0A23.459,23.459,0,0,1,0,56.191V3.709A3.711,3.711,0,0,1,3.709,0Z" transform="translate(56.313 1.055) rotate(45)"/><path class="b" d="M156.729,198.3a25.969,25.969,0,0,1-18.414-7.614h0a26.073,26.073,0,0,1,0-36.829l37.11-37.11a6.309,6.309,0,0,1,8.913,0l27.916,27.916a6.3,6.3,0,0,1,0,8.913l-37.11,37.11a25.969,25.969,0,0,1-18.414,7.614Zm23.152-78.214a1.112,1.112,0,0,0-.792.326l-37.11,37.11a20.861,20.861,0,0,0,0,29.5h0a20.886,20.886,0,0,0,29.5,0l37.11-37.11a1.121,1.121,0,0,0,0-1.584l-27.916-27.916a1.112,1.112,0,0,0-.792-.326Z" transform="translate(-123.568 -114.907)"/></g><path class="d" d="M2.043,0H25.806a2.05,2.05,0,0,1,2.051,2.051V46.712A13.934,13.934,0,0,1,13.928,60.64h0A13.934,13.934,0,0,1,0,46.712V2.051A2.05,2.05,0,0,1,2.051,0Z" transform="translate(56.329 29.86) rotate(45)"/><path class="b" d="M162.665,193.244a9.694,9.694,0,1,1,6.859-2.835A9.668,9.668,0,0,1,162.665,193.244Zm0-14.213a4.516,4.516,0,1,0,3.194,1.321A4.5,4.5,0,0,0,162.665,179.03Z" transform="translate(-128.286 -112.044)"/><g transform="translate(60.174)"><rect class="c" width="28.66" height="28.66" transform="translate(22.855 2.588) rotate(45)"/><path class="b" d="M220.857,141.139a2.581,2.581,0,0,1-1.832-.759L198.76,120.115a2.594,2.594,0,0,1,0-3.664l20.265-20.265a2.594,2.594,0,0,1,3.664,0l20.265,20.265a2.594,2.594,0,0,1,0,3.664L222.689,140.38A2.581,2.581,0,0,1,220.857,141.139Zm-16.6-22.856,16.6,16.6,16.6-16.6-16.6-16.6Z" transform="translate(-198.002 -95.427)"/></g><path class="b" d="M221.13,121.5a1.849,1.849,0,0,1-1.31-3.157l3.3-3.3a1.85,1.85,0,0,1,2.617,2.617l-3.3,3.3a1.843,1.843,0,0,1-1.31.54Z" transform="translate(-142.335 -99.47)"/><path class="b" d="M229.946,130.318a1.849,1.849,0,0,1-1.31-3.157l3.3-3.3a1.85,1.85,0,0,1,2.617,2.617l-3.3,3.3a1.843,1.843,0,0,1-1.31.54Z" transform="translate(-144.203 -101.337)"/></g><g transform="translate(129.03 78.203)"><circle class="c" cx="15.068" cy="15.068" r="15.068" transform="translate(1.851 1.847)"/><path class="e" d="M180.636,133.064a16.919,16.919,0,1,1,16.919-16.919A16.938,16.938,0,0,1,180.636,133.064Zm0-30.14a13.218,13.218,0,1,0,13.218,13.218A13.233,13.233,0,0,0,180.636,102.923Z" transform="translate(-163.717 -99.226)"/><g transform="translate(14.765 7.643)"><rect class="e" width="4.308" height="4.308" rx="2.154" transform="translate(0 14.236)"/><rect class="e" width="4.308" height="12.659" rx="2.154"/></g></g></g></svg>