<svg xmlns="http://www.w3.org/2000/svg" xmlns:xlink="http://www.w3.org/1999/xlink" width="1376" height="768" viewBox="0 0 1376 768"><defs><style>.a{fill:#161616;stroke:#707070;}.b{clip-path:url(#a);}.c{fill:#001e69;}</style><clipPath id="a"><rect class="a" width="1376" height="768"/></clipPath></defs><g class="b"><g transform="translate(12.621 -231.624)"><path class="c" d="M6-.363H975.393A6.371,6.371,0,0,1,981.757,6V975.393a6.371,6.371,0,0,1-6.364,6.364H6a6.371,6.371,0,0,1-6.364-6.364V6A6.371,6.371,0,0,1,6-.363ZM975.393,981.031a5.644,5.644,0,0,0,5.638-5.638V6A5.644,5.644,0,0,0,975.393.363H6A5.644,5.644,0,0,0,.363,6V975.393A5.644,5.644,0,0,0,6,981.031Z" transform="matrix(0.866, -0.5, 0.5, 0.866, 53.182, 491.902)"/><path class="c" d="M5.933-.363H964.525a6.3,6.3,0,0,1,6.3,6.3V964.525a6.3,6.3,0,0,1-6.3,6.3H5.933a6.3,6.3,0,0,1-6.3-6.3V5.933A6.3,6.3,0,0,1,5.933-.363ZM964.525,970.094a5.576,5.576,0,0,0,5.57-5.57V5.933a5.576,5.576,0,0,0-5.57-5.57H5.933a5.576,5.576,0,0,0-5.57,5.57V964.525a5.576,5.576,0,0,0,5.57,5.57Z" transform="matrix(0.88, -0.475, 0.475, 0.88, 61.129, 496.943)"/><path class="c" d="M5.87-.363H954.459a6.24,6.24,0,0,1,6.233,6.233V954.459a6.24,6.24,0,0,1-6.233,6.233H5.87a6.24,6.24,0,0,1-6.233-6.233V5.87A6.24,6.24,0,0,1,5.87-.363ZM954.459,959.966a5.513,5.513,0,0,0,5.507-5.507V5.87A5.513,5.513,0,0,0,954.459.363H5.87A5.513,5.513,0,0,0,.363,5.87V954.459a5.513,5.513,0,0,0,5.507,5.507Z" transform="translate(69.093 501.944) rotate(-26.71)"/><path class="c" d="M5.814-.363H945.22A6.184,6.184,0,0,1,951.4,5.814V945.22a6.184,6.184,0,0,1-6.177,6.177H5.814A6.184,6.184,0,0,1-.363,945.22V5.814A6.184,6.184,0,0,1,5.814-.363ZM945.22,950.671a5.457,5.457,0,0,0,5.451-5.451V5.814A5.457,5.457,0,0,0,945.22.363H5.814A5.457,5.457,0,0,0,.363,5.814V945.22a5.457,5.457,0,0,0,5.451,5.451Z" transform="translate(77.039 506.985) rotate(-25.01)"/><path class="c" d="M5.763-.363H936.812a6.133,6.133,0,0,1,6.127,6.127V936.812a6.133,6.133,0,0,1-6.127,6.127H5.763a6.133,6.133,0,0,1-6.127-6.127V5.763A6.133,6.133,0,0,1,5.763-.363ZM936.812,942.213a5.407,5.407,0,0,0,5.4-5.4V5.763a5.407,5.407,0,0,0-5.4-5.4H5.763a5.407,5.407,0,0,0-5.4,5.4V936.812a5.407,5.407,0,0,0,5.4,5.4Z" transform="matrix(0.919, -0.395, 0.395, 0.919, 84.997, 512.008)"/><path class="c" d="M5.715-.363H929.3a6.085,6.085,0,0,1,6.078,6.078V929.3a6.085,6.085,0,0,1-6.078,6.078H5.715A6.085,6.085,0,0,1-.363,929.3V5.715A6.085,6.085,0,0,1,5.715-.363ZM929.3,934.651a5.358,5.358,0,0,0,5.352-5.352V5.715A5.358,5.358,0,0,0,929.3.363H5.715A5.358,5.358,0,0,0,.363,5.715V929.3a5.358,5.358,0,0,0,5.352,5.352Z" transform="translate(92.943 517.05) rotate(-21.52)"/><path class="c" d="M5.676-.363H922.657A6.046,6.046,0,0,1,928.7,5.676V922.657a6.046,6.046,0,0,1-6.039,6.039H5.676a6.046,6.046,0,0,1-6.039-6.039V5.676A6.046,6.046,0,0,1,5.676-.363ZM922.657,927.97a5.319,5.319,0,0,0,5.313-5.313V5.676A5.319,5.319,0,0,0,922.657.363H5.676A5.319,5.319,0,0,0,.363,5.676V922.657a5.319,5.319,0,0,0,5.313,5.313Z" transform="translate(100.89 522.093) rotate(-19.73)"/><path class="c" d="M5.64-.363H916.933a6.01,6.01,0,0,1,6,6V916.933a6.01,6.01,0,0,1-6,6H5.64a6.01,6.01,0,0,1-6-6V5.64A6.01,6.01,0,0,1,5.64-.363ZM916.933,922.21a5.283,5.283,0,0,0,5.277-5.277V5.64A5.283,5.283,0,0,0,916.933.363H5.64A5.283,5.283,0,0,0,.363,5.64V916.933A5.283,5.283,0,0,0,5.64,922.21Z" transform="matrix(0.951, -0.308, 0.308, 0.951, 108.85, 527.127)"/><path class="c" d="M5.611-.363H912.132a5.981,5.981,0,0,1,5.974,5.974V912.132a5.981,5.981,0,0,1-5.974,5.974H5.611a5.981,5.981,0,0,1-5.974-5.974V5.611A5.981,5.981,0,0,1,5.611-.363ZM912.132,917.38a5.254,5.254,0,0,0,5.248-5.248V5.611A5.254,5.254,0,0,0,912.132.363H5.611A5.254,5.254,0,0,0,.363,5.611V912.132a5.254,5.254,0,0,0,5.248,5.248Z" transform="matrix(0.961, -0.277, 0.277, 0.961, 116.809, 532.148)"/><path class="c" d="M5.587-.363H908.272a5.957,5.957,0,0,1,5.95,5.95V908.272a5.957,5.957,0,0,1-5.95,5.95H5.587a5.957,5.957,0,0,1-5.95-5.95V5.587A5.957,5.957,0,0,1,5.587-.363ZM908.272,913.5a5.229,5.229,0,0,0,5.224-5.224V5.587A5.229,5.229,0,0,0,908.272.363H5.587A5.229,5.229,0,0,0,.363,5.587V908.272A5.229,5.229,0,0,0,5.587,913.5Z" transform="translate(124.755 537.176) rotate(-14.24)"/><path class="c" d="M5.57-.363h899.8A5.94,5.94,0,0,1,911.3,5.57v899.8a5.94,5.94,0,0,1-5.933,5.933H5.57A5.94,5.94,0,0,1-.363,905.37V5.57A5.94,5.94,0,0,1,5.57-.363Zm899.8,910.94a5.213,5.213,0,0,0,5.207-5.207V5.57A5.213,5.213,0,0,0,905.37.363H5.57A5.213,5.213,0,0,0,.363,5.57v899.8a5.213,5.213,0,0,0,5.207,5.207Z" transform="translate(132.731 542.192) rotate(-12.38)"/><path class="c" d="M5.558-.363H903.421a5.927,5.927,0,0,1,5.921,5.921V903.421a5.927,5.927,0,0,1-5.921,5.921H5.558a5.927,5.927,0,0,1-5.921-5.921V5.558A5.928,5.928,0,0,1,5.558-.363ZM903.421,908.615a5.2,5.2,0,0,0,5.194-5.194V5.558A5.2,5.2,0,0,0,903.421.363H5.558A5.2,5.2,0,0,0,.363,5.558V903.421a5.2,5.2,0,0,0,5.195,5.194Z" transform="translate(140.634 547.25) rotate(-10.5)"/><path class="c" d="M5.55-.363h896.9a5.92,5.92,0,0,1,5.913,5.914v896.9a5.92,5.92,0,0,1-5.913,5.913H5.55A5.92,5.92,0,0,1-.363,902.45V5.55A5.92,5.92,0,0,1,5.55-.363Zm896.9,908a5.193,5.193,0,0,0,5.187-5.187V5.55A5.193,5.193,0,0,0,902.45.363H5.55A5.193,5.193,0,0,0,.363,5.55v896.9a5.193,5.193,0,0,0,5.187,5.187Z" transform="matrix(0.989, -0.15, 0.15, 0.989, 148.585, 552.286)"/><path class="c" d="M5.55-.363h896.9a5.92,5.92,0,0,1,5.913,5.914v896.9a5.92,5.92,0,0,1-5.913,5.913H5.55a5.92,5.92,0,0,1-5.914-5.913V5.55A5.92,5.92,0,0,1,5.55-.363Zm896.9,908.005a5.193,5.193,0,0,0,5.187-5.187V5.55A5.193,5.193,0,0,0,902.455.363H5.55A5.193,5.193,0,0,0,.363,5.55v896.9a5.193,5.193,0,0,0,5.187,5.187Z" transform="matrix(0.993, -0.117, 0.117, 0.993, 156.535, 557.311)"/><path class="c" d="M5.558-.363H903.42a5.927,5.927,0,0,1,5.921,5.921V903.42a5.928,5.928,0,0,1-5.921,5.921H5.558A5.927,5.927,0,0,1-.363,903.42V5.558A5.927,5.927,0,0,1,5.558-.363ZM903.42,908.615a5.2,5.2,0,0,0,5.195-5.195V5.558A5.2,5.2,0,0,0,903.42.363H5.558A5.2,5.2,0,0,0,.363,5.558V903.42a5.2,5.2,0,0,0,5.194,5.195Z" transform="translate(164.489 562.345) rotate(-4.86)"/><path class="c" d="M5.57-.363h899.8A5.94,5.94,0,0,1,911.3,5.57v899.8a5.94,5.94,0,0,1-5.933,5.933H5.57a5.94,5.94,0,0,1-5.933-5.933V5.57A5.94,5.94,0,0,1,5.57-.363Zm899.8,910.939a5.213,5.213,0,0,0,5.207-5.207V5.57A5.213,5.213,0,0,0,905.369.363H5.57A5.212,5.212,0,0,0,.363,5.57v899.8a5.213,5.213,0,0,0,5.207,5.207Z" transform="matrix(0.999, -0.052, 0.052, 0.999, 172.468, 567.366)"/><path class="c" d="M5.587-.363H908.28a5.957,5.957,0,0,1,5.95,5.95V908.28a5.957,5.957,0,0,1-5.95,5.95H5.587a5.957,5.957,0,0,1-5.95-5.95V5.587A5.957,5.957,0,0,1,5.587-.363ZM908.28,913.5a5.229,5.229,0,0,0,5.224-5.224V5.587A5.229,5.229,0,0,0,908.28.363H5.587A5.229,5.229,0,0,0,.363,5.587V908.28A5.229,5.229,0,0,0,5.587,913.5Z" transform="translate(180.452 572.383) rotate(-1.13)"/><path class="c" d="M5.611-.363H912.129A5.981,5.981,0,0,1,918.1,5.611V912.129a5.981,5.981,0,0,1-5.974,5.974H5.611a5.981,5.981,0,0,1-5.974-5.974V5.611A5.981,5.981,0,0,1,5.611-.363ZM912.129,917.376a5.254,5.254,0,0,0,5.248-5.248V5.611A5.254,5.254,0,0,0,912.129.363H5.611A5.254,5.254,0,0,0,.363,5.611V912.129a5.254,5.254,0,0,0,5.248,5.248Z" transform="matrix(0.013, -1, 1, 0.013, 176.832, 1495.076)"/><path class="c" d="M5.64-.363H916.931a6.01,6.01,0,0,1,6,6V916.931a6.01,6.01,0,0,1-6,6H5.64a6.01,6.01,0,0,1-6-6V5.64A6.01,6.01,0,0,1,5.64-.363ZM916.931,922.208a5.283,5.283,0,0,0,5.277-5.277V5.64A5.283,5.283,0,0,0,916.931.363H5.64A5.283,5.283,0,0,0,.363,5.64V916.931a5.283,5.283,0,0,0,5.277,5.277Z" transform="matrix(0.044, -0.999, 0.999, 0.044, 155.23, 1504.069)"/><path class="c" d="M5.676-.363H922.663A6.046,6.046,0,0,1,928.7,5.676V922.663a6.046,6.046,0,0,1-6.039,6.039H5.676a6.046,6.046,0,0,1-6.039-6.039V5.676A6.046,6.046,0,0,1,5.676-.363ZM922.663,927.976a5.319,5.319,0,0,0,5.313-5.313V5.676A5.319,5.319,0,0,0,922.663.363H5.676A5.319,5.319,0,0,0,.363,5.676V922.663a5.319,5.319,0,0,0,5.313,5.313Z" transform="matrix(0.076, -0.997, 0.997, 0.076, 133.647, 1513.07)"/><path class="c" d="M5.715-.363H929.293a6.085,6.085,0,0,1,6.078,6.078V929.293a6.085,6.085,0,0,1-6.078,6.078H5.715a6.085,6.085,0,0,1-6.078-6.078V5.715A6.085,6.085,0,0,1,5.715-.363ZM929.293,934.644a5.358,5.358,0,0,0,5.352-5.352V5.715A5.358,5.358,0,0,0,929.293.363H5.715A5.358,5.358,0,0,0,.363,5.715V929.293a5.358,5.358,0,0,0,5.352,5.352Z" transform="translate(112.054 1522.124) rotate(-83.85)"/><path class="c" d="M5.763-.363H936.823a6.133,6.133,0,0,1,6.126,6.126V936.823a6.133,6.133,0,0,1-6.126,6.126H5.763a6.133,6.133,0,0,1-6.126-6.126V5.763A6.133,6.133,0,0,1,5.763-.363ZM936.823,942.223a5.407,5.407,0,0,0,5.4-5.4V5.763a5.407,5.407,0,0,0-5.4-5.4H5.763a5.407,5.407,0,0,0-5.4,5.4V936.823a5.407,5.407,0,0,0,5.4,5.4Z" transform="translate(90.473 1531.146) rotate(-82.09)"/><path class="c" d="M5.814-.363H945.223A6.184,6.184,0,0,1,951.4,5.814V945.223a6.184,6.184,0,0,1-6.177,6.177H5.814a6.184,6.184,0,0,1-6.177-6.177V5.814A6.184,6.184,0,0,1,5.814-.363ZM945.223,950.674a5.457,5.457,0,0,0,5.451-5.451V5.814A5.457,5.457,0,0,0,945.223.363H5.814A5.457,5.457,0,0,0,.363,5.814V945.223a5.457,5.457,0,0,0,5.451,5.451Z" transform="translate(68.874 1540.153) rotate(-80.36)"/><path class="c" d="M5.87-.363h948.6A6.24,6.24,0,0,1,960.7,5.87v948.6a6.24,6.24,0,0,1-6.233,6.233H5.87a6.24,6.24,0,0,1-6.233-6.233V5.87A6.24,6.24,0,0,1,5.87-.363Zm948.6,960.336a5.513,5.513,0,0,0,5.507-5.507V5.87A5.513,5.513,0,0,0,954.466.363H5.87A5.513,5.513,0,0,0,.363,5.87v948.6a5.513,5.513,0,0,0,5.507,5.507Z" transform="translate(47.284 1549.192) rotate(-78.66)"/><path class="c" d="M5.933-.363H964.524a6.3,6.3,0,0,1,6.3,6.3V964.524a6.3,6.3,0,0,1-6.3,6.3H5.933a6.3,6.3,0,0,1-6.3-6.3V5.933A6.3,6.3,0,0,1,5.933-.363ZM964.524,970.094a5.576,5.576,0,0,0,5.57-5.57V5.933a5.576,5.576,0,0,0-5.57-5.57H5.933a5.576,5.576,0,0,0-5.57,5.57V964.524a5.576,5.576,0,0,0,5.57,5.57Z" transform="translate(25.694 1558.16) rotate(-77)"/><path class="c" d="M6-.363H975.393A6.371,6.371,0,0,1,981.757,6V975.393a6.371,6.371,0,0,1-6.364,6.364H6a6.371,6.371,0,0,1-6.364-6.364V6A6.371,6.371,0,0,1,6-.363ZM975.393,981.031a5.644,5.644,0,0,0,5.638-5.638V6A5.644,5.644,0,0,0,975.393.363H6A5.644,5.644,0,0,0,.363,6V975.393A5.644,5.644,0,0,0,6,981.031Z" transform="translate(4.114 1567.194) rotate(-75.37)"/></g></g></svg>